<svg width="730" height="593" viewBox="0 0 730 593" xmlns="http://www.w3.org/2000/svg"><title>Page 1</title><g fill="none" fill-rule="evenodd"><path stroke="#9FBACF" stroke-width="1.5" d="M293.074 228.297l-32.057 32.057v80.155l24.047 24.046M301.095 380.587l24.046 24.047h80.157l24.046-24.047M445.374 364.556l24.047-24.046v-80.156l-40.077-40.078M413.312 204.245l-8.015-8.015H325.14l-8.014 8.015M228.955 180.2l-48.093 48.092v144.28l32.062 32.062M261.017 148.137l32.062-32.063h144.28l32.06 32.063M317.126 412.65l-144.28 144.28v16.03l16.03 16.03M413.312 412.65l144.28 144.28v16.03l-16.03 16.03"/><path stroke="#9ED9FF" stroke-width="1.5" d="M293.08 124.09v16.03l48.092 48.094h48.094l48.093-48.093v-16.03"/><path stroke="#9ED9FF" stroke-width="1.5" d="M253 140.12l72.14-72.14h80.157l64.124 64.125"/><path stroke="#9FBACF" stroke-width="1.5" d="M509.5 100.043l-40.08-40.077H261.018l-48.093 48.093"/><path stroke="#C6E1F8" stroke-width="1.5" d="M461.406 67.98l-8.016 8.017v24.046l24.047 24.047M269.032 67.98l8.016 8.017v24.046l-32.062 32.062"/><path stroke="#9FBACF" stroke-width="1.5" d="M172.846 148.137l-48.093 48.093v208.404l48.093 48.093M501.483 180.2l48.094 48.092v144.28l-32.063 32.062M485.452 436.696l-16.03 16.03 48.092 48.094 16.03-16.03"/><path stroke="#9ED9FF" stroke-width="1.5" d="M533.545 372.572h-8.015l-48.093-48.094v-48.093l48.093-48.093h8.015"/><path stroke="#9FBACF" stroke-width="1.5" d="M597.67 244.56h-32.062l-8.016-8.015v-8.253l32.062-32.062"/><path stroke="#9FBACF" stroke-width="1.5" d="M541.56 132.105l64.125 64.125v208.404l-48.093 48.093"/><path stroke="#BEF3C6" stroke-width="1.5" d="M597.67 260.354h-40.078v8.016h40.078v8.015h-40.078v8.016h40.078v8.016h-40.078v8.016h40.078v8.015h-40.078v8.016h40.078v8.015h-40.078v8.016h40.078v8.016h-40.078v8.015h40.078v8.016h-40.078v8.016h40.078v8.016h-40.078v8.015h40.078"/><path stroke="#C6E1F8" stroke-width="1.5" d="M405.297 108.06V75.996h-8.016v32.062h-8.014V75.996h-8.016v32.062h-8.015V75.996h-16.032v32.062h-8.015V75.996h-8.016v32.062h-8.015V75.996h-8.016v32.062M549.577 436.696l40.077-40.078h8.016M573.623 396.618L541.56 428.68M557.592 396.618l-24.047 24.047M541.56 396.618l-16.03 16.03M517.514 484.79l-32.062-32.063"/><path d="M365 84.012v24.047" stroke="#BEF3C6" stroke-width="1.5"/><path d="M509.5 172.183l40.085 40.087" stroke="#9ED9FF" stroke-width="1.5"/><path stroke="#C6E1F8" stroke-width="1.5" d="M517.514 164.168l32.063 32.062h24.046l8.016-8.016"/><path stroke="#9ED9FF" stroke-width="1.5" d="M309.11 132.105l8.016-8.015h16.03v24.047M341.172 156.152V124.09h8.016v40.078"/><path stroke="#9FBACF" stroke-width="1.5" d="M373.235 124.09v48.093l-8.016 8.016-8.017-8.017V124.09"/><path stroke="#9ED9FF" stroke-width="1.5" d="M381.25 164.168V124.09h8.016v32.062M397.28 148.137V124.09h16.032l8.016 8.015"/><path fill="#004B80" d="M343.693 333.206l3.02-3.824h22.402l11.633 14.48-2 4.935h-28.942l.71-4.934M352.075 282.84l10.465-18.32 12.16-.02 54.644 64.645-4.247 19.653H401.68l1.456-5.538"/><path fill="#004B80" d="M364.518 259.912l4.97-9.17 14.745-12.053 25.29 20.01-3.24 3.364 4.385 6.147v6.575l-12.606 10.346-21.202-25.218M324.58 301.8h6.9l17.782-15.245 23.6 28.012-6.7 10.263h-21.76l-15.056 19.485-3.44 4.484h-19.508v-23.91"/><path d="M429.343 404.634l32.374 32.374M437.36 396.618l31.967 31.968M477.437 356.54l32.256 32.26M485.452 348.525l32.337 32.337M469.42 244.323l40.08-40.078M461.406 236.307l40.077-40.077M453.39 228.292l40.078-40.078M413.312 188.214l40.078-40.077M317.126 188.214l-40.078-40.077M309.11 196.23l-40.078-40.078M269.032 236.307l-40.077-40.077M261.017 244.323l-40.078-40.078M253 252.34l-40.076-40.08M477.437 252.34l40.077-40.08M501.483 268.37h8.016l16.03 16.03v32.063l-16.03 16.03h-8.165" stroke="#C6E1F8" stroke-width="1.5"/><path stroke="#9FBACF" stroke-width="1.5" d="M621.716 244.323l7.882-.134 32.196 32.195v64.125l-32.228 32.227h-7.85"/><path stroke="#9ED9FF" stroke-width="1.5" d="M669.81 284.4l8.015 8.016v40.078l-8.015 8.016"/><path stroke="#9FBACF" stroke-width="1.5" d="M685.84 300.432h8.016v24.046h-8.015"/><path stroke="#9ED9FF" stroke-width="1.5" d="M726.364 300.432h-24.492v24.046h24.492"/><path d="M405.297 412h-32.062M413.312 428h-40.077M429.343 444h-56.108M445.374 460h-72.14M461.406 476h-88.17M477.437 492H373.235M493.468 508H373.235M509.5 524H373.234M525.53 540H373.235M541.56 556H373.236M325.14 412h32.063M317.126 428h40.077M301.095 444h56.108M285.064 460h72.14M269.032 476h88.17M253 492h104.203M236.97 508h120.233M220.94 524h136.263M204.908 540h152.295M188.877 556h168.326M541.56 572H373.236M188.877 572h168.326" stroke="#9FBACF" stroke-width="1.5"/><path stroke="#9ED9FF" stroke-width="1.5" d="M517.514 92.028L477.437 51.95h-16.03l-8.017-8.016H277.048l-8.016 8.016h-16.03l-48.094 48.093M156.815 148.137l-24.047 24.046v8.016M549.577 124.09l48.093 48.093v8.016"/><path d="M605.685 19.888l-208.43 208.43M693.856 19.888l-96.186 96.186h-48.093l-88.17 88.17h-24.048l-32.063 32.063h-8.016" stroke="#9FBACF" stroke-width="1.5"/><path d="M413.293 220.295l16.05-16.05M437.36 196h24.046M445.374 188h24.047" stroke="#C6E1F8" stroke-width="1.5"/><path stroke="#9ED9FF" stroke-width="1.5" d="M501.483 148.137h-8.015v8.015h-8.016v8.016h-8.015v8.015h-8.016"/><path d="M560.695 100.043c0-1.713-1.39-3.103-3.103-3.103-1.713 0-3.103 1.39-3.103 3.103 0 1.714 1.39 3.103 3.102 3.103 1.714 0 3.103-1.39 3.103-3.103M608.788 35.92c0-1.715-1.39-3.104-3.102-3.104-1.714 0-3.103 1.39-3.103 3.103 0 1.712 1.39 3.102 3.103 3.102 1.713 0 3.102-1.39 3.102-3.103M640.85 35.92c0-1.715-1.39-3.104-3.102-3.104-1.714 0-3.103 1.39-3.103 3.103 0 1.712 1.39 3.102 3.103 3.102 1.713 0 3.103-1.39 3.103-3.103M592.757 100.043c0-1.713-1.39-3.103-3.103-3.103-1.713 0-3.102 1.39-3.102 3.103 0 1.714 1.39 3.103 3.102 3.103 1.714 0 3.103-1.39 3.103-3.103" fill="#E9F1F8"/><path d="M544.664 92.028c0-1.714-1.39-3.103-3.103-3.103-1.712 0-3.102 1.39-3.102 3.103 0 1.713 1.39 3.103 3.103 3.103 1.715 0 3.104-1.39 3.104-3.102M696.96 3.857c0-1.714-1.39-3.103-3.103-3.103-1.714 0-3.103 1.39-3.103 3.103 0 1.713 1.39 3.103 3.103 3.103 1.713 0 3.102-1.39 3.102-3.103M432.447 204.245c0-1.713-1.39-3.103-3.103-3.103-1.714 0-3.103 1.39-3.103 3.103 0 1.714 1.39 3.103 3.104 3.103 1.713 0 3.103-1.39 3.103-3.103M441.26 195.43c0-1.713-1.387-3.103-3.102-3.103-1.714 0-3.103 1.39-3.103 3.103 0 1.714 1.39 3.105 3.103 3.105 1.715 0 3.103-1.39 3.103-3.105M472.524 188.214c0-1.713-1.39-3.103-3.103-3.103-1.712 0-3.102 1.39-3.102 3.104 0 1.714 1.39 3.103 3.103 3.103 1.715 0 3.104-1.39 3.104-3.103" fill="#C6E1F8"/><path d="M504.586 148.137c0-1.714-1.39-3.103-3.103-3.103-1.713 0-3.102 1.39-3.102 3.103 0 1.713 1.39 3.102 3.103 3.102 1.714 0 3.103-1.39 3.103-3.103" fill="#9ED9FF"/><path d="M401.33 236.307c0-1.713-1.39-3.102-3.102-3.102-1.716 0-3.105 1.39-3.105 3.102 0 1.714 1.39 3.103 3.105 3.103 1.713 0 3.103-1.39 3.103-3.103M608.844 19.888c0-1.714-1.39-3.103-3.103-3.103-1.714 0-3.103 1.39-3.103 3.103 0 1.713 1.39 3.103 3.104 3.103 1.715 0 3.104-1.39 3.104-3.102" fill="#9FBACF"/><path d="M445.374 190.52c1.274 0 2.305-1.034 2.305-2.306s-1.032-2.305-2.306-2.305c-1.273 0-2.304 1.032-2.304 2.304 0 1.272 1.03 2.305 2.304 2.305" fill="#FFF"/><path d="M445.374 190.52c1.274 0 2.305-1.034 2.305-2.306s-1.032-2.305-2.306-2.305c-1.273 0-2.304 1.032-2.304 2.304 0 1.272 1.03 2.305 2.304 2.305z" stroke="#C6E1F8" stroke-width="1.5"/><path d="M461.406 198.535c1.273 0 2.304-1.034 2.304-2.305 0-1.272-1.03-2.305-2.304-2.305-1.274 0-2.305 1.033-2.305 2.305 0 1.27 1.032 2.305 2.306 2.305" fill="#FFF"/><path d="M461.406 198.535c1.273 0 2.304-1.034 2.304-2.305 0-1.272-1.03-2.305-2.304-2.305-1.274 0-2.305 1.033-2.305 2.305 0 1.27 1.032 2.305 2.306 2.305z" stroke="#C6E1F8" stroke-width="1.5"/><path d="M413.234 222.66c1.272 0 2.305-1.032 2.305-2.305 0-1.272-1.034-2.304-2.306-2.304-1.274 0-2.305 1.033-2.305 2.305 0 1.273 1.03 2.305 2.304 2.305" fill="#FFF"/><path d="M413.234 222.66c1.272 0 2.305-1.032 2.305-2.305 0-1.272-1.034-2.304-2.306-2.304-1.274 0-2.305 1.033-2.305 2.305 0 1.273 1.03 2.305 2.304 2.305z" stroke="#C6E1F8" stroke-width="1.5"/><path d="M397.28 230.62c1.275 0 2.306-1.032 2.306-2.304 0-1.272-1.03-2.305-2.305-2.305-1.272 0-2.304 1.034-2.304 2.306s1.032 2.305 2.305 2.305" fill="#FFF"/><path d="M397.28 230.62c1.275 0 2.306-1.032 2.306-2.304 0-1.272-1.03-2.305-2.305-2.305-1.272 0-2.304 1.034-2.304 2.306s1.032 2.305 2.305 2.305z" stroke="#9FBACF" stroke-width="1.5"/><path d="M693.856 22.193c1.274 0 2.305-1.034 2.305-2.305 0-1.272-1.03-2.305-2.304-2.305-1.273 0-2.305 1.033-2.305 2.305 0 1.27 1.033 2.305 2.306 2.305" fill="#FFF"/><path d="M693.856 22.193c1.274 0 2.305-1.034 2.305-2.305 0-1.272-1.03-2.305-2.304-2.305-1.273 0-2.305 1.033-2.305 2.305 0 1.27 1.033 2.305 2.306 2.305z" stroke="#9FBACF" stroke-width="1.5"/><path d="M469.42 174.488c1.275 0 2.306-1.033 2.306-2.305 0-1.272-1.03-2.305-2.305-2.305-1.272 0-2.304 1.033-2.304 2.305 0 1.272 1.032 2.305 2.305 2.305" fill="#FFF"/><path d="M469.42 174.488c1.275 0 2.306-1.033 2.306-2.305 0-1.272-1.03-2.305-2.305-2.305-1.272 0-2.304 1.033-2.304 2.305 0 1.272 1.032 2.305 2.305 2.305z" stroke="#9ED9FF" stroke-width="1.5"/><path stroke="#C6E1F8" stroke-width="1.5" d="M613.7 19.888l8.016 8.015h48.094l8.015-8.015 16.03-16.03"/><path stroke="#C6E1F8" stroke-width="1.5" d="M541.56 92.028v8.015l8.017 8.016h48.093l96.186-96.188"/><path d="M557.592 84.012l48.093-48.093M557.592 100.043l64.124-64.124M573.623 100.043l64.125-64.124M589.654 100.043L653.78 35.92" stroke="#E9F1F8" stroke-width="1.5"/><path d="M557.592 86.317c1.274 0 2.305-1.033 2.305-2.305 0-1.272-1.03-2.305-2.305-2.305-1.274 0-2.305 1.033-2.305 2.305 0 1.272 1.03 2.305 2.305 2.305" fill="#FFF"/><path d="M557.592 86.317c1.274 0 2.305-1.033 2.305-2.305 0-1.272-1.03-2.305-2.305-2.305-1.274 0-2.305 1.033-2.305 2.305 0 1.272 1.03 2.305 2.305 2.305z" stroke="#E9F1F8" stroke-width="1.5"/><path d="M621.716 38.224c1.274 0 2.305-1.033 2.305-2.305 0-1.273-1.03-2.306-2.304-2.306-1.273 0-2.304 1.033-2.304 2.305 0 1.27 1.03 2.304 2.304 2.304" fill="#FFF"/><path d="M621.716 38.224c1.274 0 2.305-1.033 2.305-2.305 0-1.273-1.03-2.306-2.304-2.306-1.273 0-2.304 1.033-2.304 2.305 0 1.27 1.03 2.304 2.304 2.304z" stroke="#E9F1F8" stroke-width="1.5"/><path d="M653.78 38.224c1.272 0 2.304-1.033 2.304-2.305 0-1.273-1.032-2.306-2.305-2.306-1.275 0-2.306 1.033-2.306 2.305 0 1.27 1.03 2.304 2.305 2.304" fill="#FFF"/><path d="M653.78 38.224c1.272 0 2.304-1.033 2.304-2.305 0-1.273-1.032-2.306-2.305-2.306-1.275 0-2.306 1.033-2.306 2.305 0 1.27 1.03 2.304 2.305 2.304z" stroke="#E9F1F8" stroke-width="1.5"/><path d="M573.623 102.348c1.274 0 2.305-1.033 2.305-2.305 0-1.272-1.03-2.305-2.305-2.305-1.273 0-2.305 1.033-2.305 2.305 0 1.272 1.032 2.305 2.305 2.305" fill="#FFF"/><path d="M573.623 102.348c1.274 0 2.305-1.033 2.305-2.305 0-1.272-1.03-2.305-2.305-2.305-1.273 0-2.305 1.033-2.305 2.305 0 1.272 1.032 2.305 2.305 2.305z" stroke="#E9F1F8" stroke-width="1.5"/><path d="M693.856 14.177c1.274 0 2.305-1.033 2.305-2.305 0-1.272-1.03-2.305-2.304-2.305-1.273 0-2.305 1.033-2.305 2.305 0 1.272 1.033 2.305 2.306 2.305" fill="#FFF"/><path d="M693.856 14.177c1.274 0 2.305-1.033 2.305-2.305 0-1.272-1.03-2.305-2.304-2.305-1.273 0-2.305 1.033-2.305 2.305 0 1.272 1.033 2.305 2.306 2.305z" stroke="#C6E1F8" stroke-width="1.5"/><path d="M613.7 22.193c1.274 0 2.306-1.034 2.306-2.305 0-1.272-1.032-2.305-2.305-2.305-1.273 0-2.304 1.033-2.304 2.305 0 1.27 1.03 2.305 2.305 2.305" fill="#FFF"/><path d="M613.7 22.193c1.274 0 2.306-1.034 2.306-2.305 0-1.272-1.032-2.305-2.305-2.305-1.273 0-2.304 1.033-2.304 2.305 0 1.27 1.03 2.305 2.305 2.305z" stroke="#C6E1F8" stroke-width="1.5"/><path d="M133.005 36.078l216.403 216.404M44.834 36.078l96.186 96.186h48.094l88.17 88.17h24.047l32.063 32.064h8.016" stroke="#9FBACF" stroke-width="1.5"/><path d="M325.397 236.485l-16.05-16.05M301.33 211.518h-24.045M293.316 203.518H269.27" stroke="#C6E1F8" stroke-width="1.5"/><path stroke="#9ED9FF" stroke-width="1.5" d="M237.207 164.327h8.015v8.015h8.016v8.016h8.015v8.015h8.016"/><path d="M177.995 116.233c0-1.713 1.39-3.103 3.103-3.103 1.715 0 3.103 1.39 3.103 3.103 0 1.714-1.387 3.103-3.102 3.103-1.714 0-3.103-1.39-3.103-3.103M129.902 52.11c0-1.714 1.39-3.104 3.102-3.104 1.716 0 3.103 1.39 3.103 3.103 0 1.713-1.387 3.102-3.103 3.102-1.713 0-3.102-1.39-3.102-3.103M97.84 52.11c0-1.714 1.39-3.104 3.102-3.104 1.716 0 3.103 1.39 3.103 3.103 0 1.713-1.387 3.102-3.103 3.102-1.713 0-3.103-1.39-3.103-3.103M145.933 116.233c0-1.713 1.39-3.103 3.103-3.103 1.715 0 3.102 1.39 3.102 3.103 0 1.714-1.387 3.103-3.102 3.103-1.714 0-3.103-1.39-3.103-3.103" fill="#E9F1F8"/><path d="M194.026 108.218c0-1.714 1.39-3.103 3.103-3.103 1.714 0 3.102 1.39 3.102 3.103 0 1.713-1.388 3.103-3.103 3.103-1.715 0-3.104-1.39-3.104-3.102M41.73 20.047c0-1.714 1.39-3.103 3.103-3.103 1.716 0 3.103 1.39 3.103 3.103 0 1.713-1.387 3.103-3.103 3.103-1.713 0-3.102-1.39-3.102-3.103M306.243 220.435c0-1.713 1.39-3.102 3.103-3.102 1.716 0 3.103 1.39 3.103 3.102 0 1.714-1.388 3.103-3.104 3.103-1.713 0-3.103-1.39-3.103-3.103M297.43 211.62c0-1.713 1.387-3.102 3.103-3.102 1.713 0 3.102 1.39 3.102 3.103 0 1.714-1.39 3.104-3.102 3.104-1.716 0-3.103-1.39-3.103-3.103M266.166 204.404c0-1.713 1.39-3.103 3.103-3.103 1.714 0 3.102 1.39 3.102 3.104 0 1.714-1.388 3.103-3.103 3.103-1.715 0-3.104-1.39-3.104-3.103" fill="#C6E1F8"/><path d="M234.104 164.327c0-1.714 1.39-3.103 3.103-3.103 1.715 0 3.102 1.39 3.102 3.103 0 1.713-1.388 3.103-3.103 3.103-1.714 0-3.103-1.39-3.103-3.103" fill="#9ED9FF"/><path d="M337.36 252.498c0-1.714 1.39-3.103 3.104-3.103 1.714 0 3.103 1.39 3.103 3.103 0 1.713-1.39 3.103-3.103 3.103-1.715 0-3.105-1.39-3.105-3.102M129.846 36.078c0-1.714 1.39-3.103 3.105-3.103 1.714 0 3.104 1.39 3.104 3.103 0 1.714-1.39 3.103-3.103 3.103-1.715 0-3.104-1.388-3.104-3.102" fill="#9FBACF"/><path d="M293.316 206.708c-1.274 0-2.305-1.03-2.305-2.303s1.032-2.305 2.306-2.305c1.273 0 2.305 1.032 2.305 2.305 0 1.272-1.03 2.303-2.304 2.303" fill="#FFF"/><path d="M293.316 206.708c-1.274 0-2.305-1.03-2.305-2.303s1.032-2.305 2.306-2.305c1.273 0 2.305 1.032 2.305 2.305 0 1.272-1.03 2.303-2.304 2.303z" stroke="#C6E1F8" stroke-width="1.5"/><path d="M277.285 214.724c-1.274 0-2.305-1.03-2.305-2.303s1.03-2.304 2.305-2.304c1.273 0 2.304 1.03 2.304 2.305 0 1.273-1.032 2.304-2.305 2.304" fill="#FFF"/><path d="M277.285 214.724c-1.274 0-2.305-1.03-2.305-2.303s1.03-2.304 2.305-2.304c1.273 0 2.304 1.03 2.304 2.305 0 1.273-1.032 2.304-2.305 2.304z" stroke="#C6E1F8" stroke-width="1.5"/><path d="M325.456 238.85c-1.272 0-2.303-1.032-2.303-2.305 0-1.272 1.03-2.303 2.303-2.303 1.274 0 2.305 1.03 2.305 2.303s-1.03 2.305-2.304 2.305" fill="#FFF"/><path d="M325.456 238.85c-1.272 0-2.303-1.032-2.303-2.305 0-1.272 1.03-2.303 2.303-2.303 1.274 0 2.305 1.03 2.305 2.303s-1.03 2.305-2.304 2.305z" stroke="#C6E1F8" stroke-width="1.5"/><path d="M349.397 254.8c-1.272 0-2.303-1.032-2.303-2.306 0-1.272 1.03-2.303 2.303-2.303s2.305 1.032 2.305 2.304c0 1.274-1.032 2.305-2.305 2.305" fill="#FFF"/><path d="M349.397 254.8c-1.272 0-2.303-1.032-2.303-2.306 0-1.272 1.03-2.303 2.303-2.303s2.305 1.032 2.305 2.304c0 1.274-1.032 2.305-2.305 2.305z" stroke="#9FBACF" stroke-width="1.5"/><path d="M44.834 38.382c-1.274 0-2.305-1.03-2.305-2.303 0-1.275 1.03-2.306 2.304-2.306 1.273 0 2.305 1.03 2.305 2.305 0 1.27-1.033 2.302-2.306 2.302" fill="#FFF"/><path d="M44.834 38.382c-1.274 0-2.305-1.03-2.305-2.303 0-1.275 1.03-2.306 2.304-2.306 1.273 0 2.305 1.03 2.305 2.305 0 1.27-1.033 2.302-2.306 2.302z" stroke="#9FBACF" stroke-width="1.5"/><path d="M269.27 190.677c-1.275 0-2.306-1.03-2.306-2.303s1.03-2.305 2.305-2.305c1.273 0 2.304 1.03 2.304 2.304 0 1.272-1.03 2.303-2.305 2.303" fill="#FFF"/><path d="M269.27 190.677c-1.275 0-2.306-1.03-2.306-2.303s1.03-2.305 2.305-2.305c1.273 0 2.304 1.03 2.304 2.304 0 1.272-1.03 2.303-2.305 2.303z" stroke="#9ED9FF" stroke-width="1.5"/><path stroke="#C6E1F8" stroke-width="1.5" d="M124.99 36.078l-8.016 8.016H68.88l-8.015-8.016-16.03-16.03"/><path stroke="#C6E1F8" stroke-width="1.5" d="M197.13 108.218v8.015l-8.016 8.016H141.02L44.834 28.06"/><path d="M181.098 100.202L133.005 52.11M181.098 116.233L116.974 52.11M165.067 116.233L100.943 52.11M149.036 116.233L84.912 52.11" stroke="#E9F1F8" stroke-width="1.5"/><path d="M181.098 102.506c-1.274 0-2.305-1.03-2.305-2.303s1.03-2.305 2.305-2.305c1.274 0 2.305 1.032 2.305 2.305 0 1.272-1.03 2.303-2.305 2.303" fill="#FFF"/><path d="M181.098 102.506c-1.274 0-2.305-1.03-2.305-2.303s1.03-2.305 2.305-2.305c1.274 0 2.305 1.032 2.305 2.305 0 1.272-1.03 2.303-2.305 2.303z" stroke="#E9F1F8" stroke-width="1.5"/><path d="M116.974 54.413c-1.274 0-2.305-1.03-2.305-2.303 0-1.274 1.03-2.305 2.304-2.305 1.273 0 2.305 1.03 2.305 2.305 0 1.272-1.033 2.303-2.306 2.303" fill="#FFF"/><path d="M116.974 54.413c-1.274 0-2.305-1.03-2.305-2.303 0-1.274 1.03-2.305 2.304-2.305 1.273 0 2.305 1.03 2.305 2.305 0 1.272-1.033 2.303-2.306 2.303z" stroke="#E9F1F8" stroke-width="1.5"/><path d="M84.912 54.413c-1.274 0-2.305-1.03-2.305-2.303 0-1.274 1.03-2.305 2.305-2.305 1.273 0 2.304 1.03 2.304 2.305 0 1.272-1.03 2.303-2.304 2.303" fill="#FFF"/><path d="M84.912 54.413c-1.274 0-2.305-1.03-2.305-2.303 0-1.274 1.03-2.305 2.305-2.305 1.273 0 2.304 1.03 2.304 2.305 0 1.272-1.03 2.303-2.304 2.303z" stroke="#E9F1F8" stroke-width="1.5"/><path d="M165.067 118.537c-1.274 0-2.305-1.03-2.305-2.303s1.03-2.305 2.305-2.305c1.274 0 2.305 1.03 2.305 2.304 0 1.272-1.03 2.303-2.305 2.303" fill="#FFF"/><path d="M165.067 118.537c-1.274 0-2.305-1.03-2.305-2.303s1.03-2.305 2.305-2.305c1.274 0 2.305 1.03 2.305 2.304 0 1.272-1.03 2.303-2.305 2.303z" stroke="#E9F1F8" stroke-width="1.5"/><path d="M44.834 30.366c-1.274 0-2.305-1.03-2.305-2.303s1.03-2.305 2.304-2.305c1.273 0 2.305 1.032 2.305 2.305 0 1.272-1.033 2.303-2.306 2.303" fill="#FFF"/><path d="M44.834 30.366c-1.274 0-2.305-1.03-2.305-2.303s1.03-2.305 2.304-2.305c1.273 0 2.305 1.032 2.305 2.305 0 1.272-1.033 2.303-2.306 2.303z" stroke="#C6E1F8" stroke-width="1.5"/><path d="M124.99 38.382c-1.274 0-2.306-1.03-2.306-2.303 0-1.275 1.032-2.306 2.305-2.306 1.273 0 2.304 1.03 2.304 2.305 0 1.27-1.03 2.302-2.305 2.302" fill="#FFF"/><path d="M124.99 38.382c-1.274 0-2.306-1.03-2.306-2.303 0-1.275 1.032-2.306 2.305-2.306 1.273 0 2.304 1.03 2.304 2.305 0 1.27-1.03 2.302-2.305 2.302z" stroke="#C6E1F8" stroke-width="1.5"/><path d="M629.927 573.506l-208.43-208.43M718.098 573.506L621.91 477.32H573.82l-88.17-88.172H461.6l-32.062-32.062h-8.015" stroke="#9FBACF" stroke-width="1.5"/><path d="M437.536 373.098l16.05 16.05M461.6 396.518h24.047M469.616 404.518h24.046" stroke="#C6E1F8" stroke-width="1.5"/><path stroke="#9ED9FF" stroke-width="1.5" d="M525.725 445.257h-8.016v-8.016h-8.016v-8.014h-8.016v-8.016h-8.016"/><path d="M584.937 493.35c0 1.714-1.388 3.103-3.103 3.103-1.714 0-3.103-1.39-3.103-3.103 0-1.713 1.39-3.105 3.104-3.105 1.715 0 3.103 1.392 3.103 3.105M633.03 557.474c0 1.714-1.388 3.103-3.103 3.103-1.714 0-3.103-1.39-3.103-3.103 0-1.713 1.39-3.104 3.103-3.104 1.715 0 3.103 1.39 3.103 3.104M665.092 557.474c0 1.714-1.387 3.103-3.103 3.103-1.714 0-3.104-1.39-3.104-3.103 0-1.713 1.39-3.104 3.103-3.104 1.715 0 3.102 1.39 3.102 3.104M617 493.35c0 1.714-1.39 3.103-3.104 3.103-1.714 0-3.103-1.39-3.103-3.103 0-1.713 1.39-3.105 3.103-3.105 1.715 0 3.103 1.392 3.103 3.105" fill="#E9F1F8"/><path d="M568.906 501.366c0 1.713-1.388 3.103-3.103 3.103-1.714 0-3.103-1.39-3.103-3.104 0-1.714 1.39-3.105 3.103-3.105 1.715 0 3.103 1.392 3.103 3.106M721.2 589.537c0 1.713-1.387 3.103-3.102 3.103-1.714 0-3.103-1.39-3.103-3.103 0-1.714 1.39-3.105 3.103-3.105 1.715 0 3.103 1.39 3.103 3.105M456.688 389.148c0 1.714-1.388 3.103-3.103 3.103-1.713 0-3.103-1.388-3.103-3.102 0-1.713 1.39-3.105 3.103-3.105 1.715 0 3.103 1.392 3.103 3.105M465.504 397.962c0 1.714-1.39 3.105-3.103 3.105-1.715 0-3.104-1.39-3.104-3.105 0-1.713 1.39-3.103 3.105-3.103 1.714 0 3.104 1.39 3.104 3.102M496.766 405.18c0 1.713-1.388 3.102-3.103 3.102-1.714 0-3.103-1.39-3.103-3.103 0-1.714 1.39-3.106 3.103-3.106 1.715 0 3.103 1.392 3.103 3.105" fill="#C6E1F8"/><path d="M528.828 445.257c0 1.713-1.388 3.103-3.103 3.103-1.714 0-3.103-1.39-3.103-3.103 0-1.714 1.39-3.105 3.103-3.105 1.715 0 3.103 1.39 3.103 3.105" fill="#9ED9FF"/><path d="M425.572 357.086c0 1.713-1.39 3.103-3.103 3.103-1.714 0-3.104-1.39-3.104-3.104 0-1.714 1.39-3.105 3.103-3.105 1.713 0 3.102 1.392 3.102 3.106M633.086 573.506c0 1.713-1.39 3.102-3.103 3.102-1.714 0-3.103-1.39-3.103-3.102 0-1.714 1.39-3.105 3.103-3.105 1.713 0 3.103 1.392 3.103 3.106" fill="#9FBACF"/><path d="M469.616 402.874c1.273 0 2.305 1.032 2.305 2.305 0 1.27-1.03 2.302-2.304 2.302-1.272 0-2.305-1.03-2.305-2.303 0-1.274 1.034-2.306 2.306-2.306" fill="#FFF"/><path d="M469.616 402.874c1.273 0 2.305 1.032 2.305 2.305 0 1.27-1.03 2.302-2.304 2.302-1.272 0-2.305-1.03-2.305-2.303 0-1.274 1.034-2.306 2.306-2.306z" stroke="#C6E1F8" stroke-width="1.5"/><path d="M485.647 394.86c1.273 0 2.305 1.03 2.305 2.304 0 1.272-1.032 2.303-2.305 2.303-1.272 0-2.305-1.03-2.305-2.303 0-1.274 1.033-2.305 2.305-2.305" fill="#FFF"/><path d="M485.647 394.86c1.273 0 2.305 1.03 2.305 2.304 0 1.272-1.032 2.303-2.305 2.303-1.272 0-2.305-1.03-2.305-2.303 0-1.274 1.033-2.305 2.305-2.305z" stroke="#C6E1F8" stroke-width="1.5"/><path d="M437.475 370.734c1.274 0 2.305 1.03 2.305 2.303 0 1.274-1.03 2.305-2.305 2.305-1.273 0-2.305-1.03-2.305-2.305 0-1.272 1.032-2.303 2.305-2.303" fill="#FFF"/><path d="M437.475 370.734c1.274 0 2.305 1.03 2.305 2.303 0 1.274-1.03 2.305-2.305 2.305-1.273 0-2.305-1.03-2.305-2.305 0-1.272 1.032-2.303 2.305-2.303z" stroke="#C6E1F8" stroke-width="1.5"/><path d="M421.523 362.772c1.273 0 2.305 1.032 2.305 2.305 0 1.272-1.032 2.303-2.305 2.303-1.272 0-2.305-1.03-2.305-2.303s1.033-2.305 2.305-2.305" fill="#FFF"/><path d="M421.523 362.772c1.273 0 2.305 1.032 2.305 2.305 0 1.272-1.032 2.303-2.305 2.303-1.272 0-2.305-1.03-2.305-2.303s1.033-2.305 2.305-2.305z" stroke="#9FBACF" stroke-width="1.5"/><path d="M718.098 571.2c1.273 0 2.305 1.032 2.305 2.306 0 1.272-1.032 2.303-2.305 2.303-1.272 0-2.305-1.032-2.305-2.304 0-1.274 1.033-2.305 2.305-2.305" fill="#FFF"/><path d="M718.098 571.2c1.273 0 2.305 1.032 2.305 2.306 0 1.272-1.032 2.303-2.305 2.303-1.272 0-2.305-1.032-2.305-2.304 0-1.274 1.033-2.305 2.305-2.305z" stroke="#9FBACF" stroke-width="1.5"/><path d="M493.662 418.906c1.274 0 2.305 1.03 2.305 2.304 0 1.272-1.03 2.304-2.305 2.304-1.27 0-2.304-1.032-2.304-2.304 0-1.273 1.033-2.304 2.304-2.304" fill="#FFF"/><path d="M493.662 418.906c1.274 0 2.305 1.03 2.305 2.304 0 1.272-1.03 2.304-2.305 2.304-1.27 0-2.304-1.032-2.304-2.304 0-1.273 1.033-2.304 2.304-2.304z" stroke="#9ED9FF" stroke-width="1.5"/><path stroke="#C6E1F8" stroke-width="1.5" d="M637.942 573.506l8.016-8.016h48.093l8.017 8.016 16.03 16.03"/><path stroke="#C6E1F8" stroke-width="1.5" d="M565.802 501.366v-8.016l8.016-8.015h48.093L718.1 581.52"/><path d="M581.833 509.38l48.094 48.094M581.833 493.35l64.125 64.124M597.864 493.35l64.125 64.124M613.896 493.35l64.124 64.124" stroke="#E9F1F8" stroke-width="1.5"/><path d="M581.833 507.076c1.274 0 2.305 1.032 2.305 2.305 0 1.273-1.03 2.305-2.305 2.305-1.27 0-2.305-1.032-2.305-2.304 0-1.272 1.034-2.304 2.305-2.304" fill="#FFF"/><path d="M581.833 507.076c1.274 0 2.305 1.032 2.305 2.305 0 1.273-1.03 2.305-2.305 2.305-1.27 0-2.305-1.032-2.305-2.304 0-1.272 1.034-2.304 2.305-2.304z" stroke="#E9F1F8" stroke-width="1.5"/><path d="M645.958 555.17c1.273 0 2.305 1.03 2.305 2.305 0 1.27-1.032 2.303-2.305 2.303-1.272 0-2.305-1.032-2.305-2.303 0-1.274 1.033-2.305 2.305-2.305" fill="#FFF"/><path d="M645.958 555.17c1.273 0 2.305 1.03 2.305 2.305 0 1.27-1.032 2.303-2.305 2.303-1.272 0-2.305-1.032-2.305-2.303 0-1.274 1.033-2.305 2.305-2.305z" stroke="#E9F1F8" stroke-width="1.5"/><path d="M678.02 555.17c1.274 0 2.305 1.03 2.305 2.305 0 1.27-1.03 2.303-2.305 2.303-1.272 0-2.305-1.032-2.305-2.303 0-1.274 1.033-2.305 2.305-2.305" fill="#FFF"/><path d="M678.02 555.17c1.274 0 2.305 1.03 2.305 2.305 0 1.27-1.03 2.303-2.305 2.303-1.272 0-2.305-1.032-2.305-2.303 0-1.274 1.033-2.305 2.305-2.305z" stroke="#E9F1F8" stroke-width="1.5"/><path d="M597.864 491.045c1.274 0 2.305 1.032 2.305 2.305 0 1.272-1.032 2.303-2.306 2.303-1.27 0-2.304-1.03-2.304-2.303s1.033-2.305 2.304-2.305" fill="#FFF"/><path d="M597.864 491.045c1.274 0 2.305 1.032 2.305 2.305 0 1.272-1.032 2.303-2.306 2.303-1.27 0-2.304-1.03-2.304-2.303s1.033-2.305 2.304-2.305z" stroke="#E9F1F8" stroke-width="1.5"/><path d="M718.098 579.216c1.273 0 2.305 1.032 2.305 2.305 0 1.273-1.032 2.304-2.305 2.304-1.272 0-2.305-1.03-2.305-2.303 0-1.272 1.033-2.304 2.305-2.304" fill="#FFF"/><path d="M718.098 579.216c1.273 0 2.305 1.032 2.305 2.305 0 1.273-1.032 2.304-2.305 2.304-1.272 0-2.305-1.03-2.305-2.303 0-1.272 1.033-2.304 2.305-2.304z" stroke="#C6E1F8" stroke-width="1.5"/><path d="M637.942 571.2c1.274 0 2.305 1.032 2.305 2.306 0 1.272-1.03 2.303-2.305 2.303-1.272 0-2.305-1.032-2.305-2.304 0-1.274 1.033-2.305 2.305-2.305" fill="#FFF"/><path d="M637.942 571.2c1.274 0 2.305 1.032 2.305 2.306 0 1.272-1.03 2.303-2.305 2.303-1.272 0-2.305-1.032-2.305-2.304 0-1.274 1.033-2.305 2.305-2.305z" stroke="#C6E1F8" stroke-width="1.5"/><path d="M108.74 565.07l208.43-208.428M12.66 572.98l96.187-96.186h48.093l88.17-88.17h24.048l32.062-32.063" stroke="#9FBACF" stroke-width="1.5"/><path d="M293.222 372.573l-16.05 16.05M269.158 396.518H245.11M261.142 404.518h-24.046" stroke="#C6E1F8" stroke-width="1.5"/><path stroke="#9ED9FF" stroke-width="1.5" d="M205.033 444.732h8.016v-8.016h8.014V428.7h8.016v-8.015h8.016"/><path d="M145.82 492.825c0 1.713 1.39 3.105 3.104 3.105 1.714 0 3.103-1.392 3.103-3.105 0-1.714-1.39-3.103-3.103-3.103-1.715 0-3.104 1.39-3.104 3.103M97.726 556.95c0 1.713 1.39 3.104 3.105 3.104 1.714 0 3.104-1.39 3.104-3.105 0-1.714-1.39-3.104-3.103-3.104-1.714 0-3.104 1.39-3.104 3.103M65.664 556.95c0 1.713 1.39 3.104 3.105 3.104 1.712 0 3.102-1.39 3.102-3.105 0-1.714-1.39-3.104-3.103-3.104-1.717 0-3.106 1.39-3.106 3.103M113.757 492.825c0 1.713 1.39 3.105 3.105 3.105 1.714 0 3.103-1.392 3.103-3.105 0-1.714-1.39-3.103-3.103-3.103-1.715 0-3.105 1.39-3.105 3.103" fill="#E9F1F8"/><path d="M161.85 500.84c0 1.714 1.39 3.105 3.105 3.105 1.714 0 3.103-1.39 3.103-3.105 0-1.713-1.39-3.103-3.103-3.103-1.715 0-3.104 1.39-3.104 3.103M9.555 589.01c0 1.715 1.39 3.106 3.105 3.106 1.713 0 3.103-1.39 3.103-3.105 0-1.712-1.39-3.102-3.103-3.102-1.715 0-3.105 1.39-3.105 3.103M274.068 388.623c0 1.713 1.39 3.104 3.105 3.104 1.713 0 3.103-1.39 3.103-3.104 0-1.714-1.39-3.103-3.103-3.103-1.715 0-3.105 1.39-3.105 3.103M265.254 397.438c0 1.713 1.39 3.102 3.103 3.102 1.716 0 3.103-1.39 3.103-3.102 0-1.714-1.387-3.103-3.103-3.103-1.713 0-3.103 1.39-3.103 3.103M233.99 404.654c0 1.713 1.39 3.105 3.105 3.105 1.714 0 3.103-1.393 3.103-3.106 0-1.714-1.39-3.103-3.103-3.103-1.715 0-3.105 1.39-3.105 3.104" fill="#C6E1F8"/><path d="M201.928 444.732c0 1.713 1.39 3.104 3.105 3.104 1.714 0 3.103-1.39 3.103-3.104 0-1.714-1.39-3.103-3.103-3.103-1.715 0-3.105 1.388-3.105 3.102" fill="#9ED9FF"/><path d="M297.99 356.56c0 1.714 1.39 3.105 3.104 3.105 1.714 0 3.103-1.39 3.103-3.104 0-1.713-1.39-3.102-3.103-3.102-1.713 0-3.103 1.39-3.103 3.103M97.672 572.98c0 1.714 1.39 3.105 3.103 3.105 1.714 0 3.103-1.39 3.103-3.105 0-1.713-1.39-3.103-3.103-3.103-1.713 0-3.103 1.39-3.103 3.103" fill="#9FBACF"/><path d="M261.142 402.35c-1.273 0-2.305 1.03-2.305 2.303 0 1.274 1.032 2.305 2.305 2.305 1.272 0 2.303-1.03 2.303-2.305 0-1.272-1.03-2.303-2.303-2.303" fill="#FFF"/><path d="M261.142 402.35c-1.273 0-2.305 1.03-2.305 2.303 0 1.274 1.032 2.305 2.305 2.305 1.272 0 2.303-1.03 2.303-2.305 0-1.272-1.03-2.303-2.303-2.303z" stroke="#C6E1F8" stroke-width="1.5"/><path d="M245.11 394.334c-1.273 0-2.304 1.032-2.304 2.303 0 1.274 1.03 2.305 2.305 2.305 1.273 0 2.304-1.03 2.304-2.305 0-1.27-1.03-2.303-2.303-2.303" fill="#FFF"/><path d="M245.11 394.334c-1.273 0-2.304 1.032-2.304 2.303 0 1.274 1.03 2.305 2.305 2.305 1.273 0 2.304-1.03 2.304-2.305 0-1.27-1.03-2.303-2.303-2.303z" stroke="#C6E1F8" stroke-width="1.5"/><path d="M293.283 370.21c-1.274 0-2.305 1.03-2.305 2.304 0 1.27 1.03 2.303 2.305 2.303 1.27 0 2.304-1.032 2.304-2.303 0-1.274-1.033-2.305-2.304-2.305" fill="#FFF"/><path d="M293.283 370.21c-1.274 0-2.305 1.03-2.305 2.304 0 1.27 1.03 2.303 2.305 2.303 1.27 0 2.304-1.032 2.304-2.303 0-1.274-1.033-2.305-2.304-2.305z" stroke="#C6E1F8" stroke-width="1.5"/><path d="M317.176 354.306c-1.273 0-2.305 1.032-2.305 2.305 0 1.273 1.033 2.304 2.306 2.304 1.272 0 2.305-1.03 2.305-2.303 0-1.272-1.032-2.304-2.304-2.304" fill="#FFF"/><path d="M317.176 354.306c-1.273 0-2.305 1.032-2.305 2.305 0 1.273 1.033 2.304 2.306 2.304 1.272 0 2.305-1.03 2.305-2.303 0-1.272-1.032-2.304-2.304-2.304z" stroke="#9FBACF" stroke-width="1.5"/><path d="M12.66 570.676c-1.273 0-2.305 1.032-2.305 2.303 0 1.273 1.032 2.304 2.305 2.304 1.272 0 2.303-1.03 2.303-2.305 0-1.272-1.03-2.304-2.303-2.304" fill="#FFF"/><path d="M12.66 570.676c-1.273 0-2.305 1.032-2.305 2.303 0 1.273 1.032 2.304 2.305 2.304 1.272 0 2.303-1.03 2.303-2.305 0-1.272-1.03-2.304-2.303-2.304z" stroke="#9FBACF" stroke-width="1.5"/><path d="M237.096 418.38c-1.274 0-2.305 1.032-2.305 2.304 0 1.274 1.032 2.305 2.306 2.305 1.27 0 2.303-1.032 2.303-2.306 0-1.272-1.033-2.303-2.304-2.303" fill="#FFF"/><path d="M237.096 418.38c-1.274 0-2.305 1.032-2.305 2.304 0 1.274 1.032 2.305 2.306 2.305 1.27 0 2.303-1.032 2.303-2.306 0-1.272-1.033-2.303-2.304-2.303z" stroke="#9ED9FF" stroke-width="1.5"/><path stroke="#C6E1F8" stroke-width="1.5" d="M92.816 572.98l-8.016-8.015H36.707l-8.016 8.015-16.03 16.03"/><path stroke="#C6E1F8" stroke-width="1.5" d="M164.956 500.84v-8.015l-8.016-8.016h-48.093L12.66 580.995"/><path d="M148.925 508.856L100.83 556.95M148.925 492.825L84.8 556.95M132.893 492.825L68.77 556.95M116.862 492.825L52.738 556.95" stroke="#E9F1F8" stroke-width="1.5"/><path d="M148.925 506.552c-1.274 0-2.305 1.03-2.305 2.303 0 1.274 1.03 2.305 2.305 2.305 1.27 0 2.303-1.03 2.303-2.305 0-1.272-1.032-2.303-2.303-2.303" fill="#FFF"/><path d="M148.925 506.552c-1.274 0-2.305 1.03-2.305 2.303 0 1.274 1.03 2.305 2.305 2.305 1.27 0 2.303-1.03 2.303-2.305 0-1.272-1.032-2.303-2.303-2.303z" stroke="#E9F1F8" stroke-width="1.5"/><path d="M84.8 554.645c-1.273 0-2.305 1.032-2.305 2.303 0 1.274 1.032 2.305 2.305 2.305 1.272 0 2.303-1.03 2.303-2.305 0-1.27-1.03-2.303-2.303-2.303" fill="#FFF"/><path d="M84.8 554.645c-1.273 0-2.305 1.032-2.305 2.303 0 1.274 1.032 2.305 2.305 2.305 1.272 0 2.303-1.03 2.303-2.305 0-1.27-1.03-2.303-2.303-2.303z" stroke="#E9F1F8" stroke-width="1.5"/><path d="M52.738 554.645c-1.274 0-2.305 1.032-2.305 2.303 0 1.274 1.03 2.305 2.305 2.305 1.272 0 2.303-1.03 2.303-2.305 0-1.27-1.03-2.303-2.302-2.303" fill="#FFF"/><path d="M52.738 554.645c-1.274 0-2.305 1.032-2.305 2.303 0 1.274 1.03 2.305 2.305 2.305 1.272 0 2.303-1.03 2.303-2.305 0-1.27-1.03-2.303-2.302-2.303z" stroke="#E9F1F8" stroke-width="1.5"/><path d="M132.893 490.52c-1.273 0-2.304 1.032-2.304 2.304 0 1.274 1.03 2.305 2.303 2.305 1.272 0 2.304-1.032 2.304-2.306 0-1.272-1.032-2.303-2.304-2.303" fill="#FFF"/><path d="M132.893 490.52c-1.273 0-2.304 1.032-2.304 2.304 0 1.274 1.03 2.305 2.303 2.305 1.272 0 2.304-1.032 2.304-2.306 0-1.272-1.032-2.303-2.304-2.303z" stroke="#E9F1F8" stroke-width="1.5"/><path d="M12.66 578.692c-1.273 0-2.305 1.03-2.305 2.303 0 1.274 1.032 2.305 2.305 2.305 1.272 0 2.303-1.03 2.303-2.305 0-1.272-1.03-2.303-2.303-2.303" fill="#FFF"/><path d="M12.66 578.692c-1.273 0-2.305 1.03-2.305 2.303 0 1.274 1.032 2.305 2.305 2.305 1.272 0 2.303-1.03 2.303-2.305 0-1.272-1.03-2.303-2.303-2.303z" stroke="#C6E1F8" stroke-width="1.5"/><path d="M92.816 570.676c-1.274 0-2.305 1.032-2.305 2.303 0 1.273 1.032 2.304 2.306 2.304 1.272 0 2.303-1.03 2.303-2.305 0-1.272-1.032-2.304-2.304-2.304" fill="#FFF"/><path d="M92.816 570.676c-1.274 0-2.305 1.032-2.305 2.303 0 1.273 1.032 2.304 2.306 2.304 1.272 0 2.303-1.03 2.303-2.305 0-1.272-1.032-2.304-2.304-2.304z" stroke="#C6E1F8" stroke-width="1.5"/><path d="M365 124.09v40.078M517.514 299.518h-32.062" stroke="#BEF3C6" stroke-width="1.5"/><path stroke="#C6E1F8" stroke-width="1.5" d="M621.716 276.385h8.016l8.016-8.015v-8.016h-16.032M621.716 340.51h8.016l8.016 8.015v8.016h-16.032"/><path stroke="#BEF3C6" stroke-width="1.5" d="M637.748 276.385h8.015l8.016 8.016v48.094l-8.017 8.016h-8.015"/><path stroke="#C6E1F8" stroke-width="1.5" d="M621.716 292.416h8.016l8.016 8.016v16.03l-8.016 8.016h-8.016"/><path d="M408.4 108.06c0-1.715-1.39-3.104-3.103-3.104-1.713 0-3.103 1.39-3.103 3.103 0 1.712 1.39 3.102 3.103 3.102 1.714 0 3.103-1.39 3.103-3.103M248.09 132.105c0-1.713-1.39-3.102-3.104-3.102-1.713 0-3.103 1.39-3.103 3.102 0 1.714 1.39 3.103 3.103 3.103 1.714 0 3.103-1.39 3.103-3.103M272.136 156.152c0-1.713-1.39-3.103-3.103-3.103-1.714 0-3.103 1.39-3.103 3.102 0 1.714 1.39 3.103 3.103 3.103 1.713 0 3.103-1.39 3.103-3.103M320.23 188.214c0-1.713-1.39-3.103-3.104-3.103-1.713 0-3.103 1.39-3.103 3.104 0 1.714 1.39 3.103 3.103 3.103 1.714 0 3.103-1.39 3.103-3.103M480.54 124.09c0-1.714-1.39-3.103-3.103-3.103-1.714 0-3.103 1.39-3.103 3.103 0 1.713 1.39 3.103 3.103 3.103 1.713 0 3.103-1.39 3.103-3.103M520.617 164.168c0-1.714-1.39-3.103-3.102-3.103-1.714 0-3.103 1.39-3.103 3.103 0 1.713 1.39 3.103 3.103 3.103 1.713 0 3.102-1.39 3.102-3.102M416.416 188.214c0-1.713-1.39-3.103-3.103-3.103-1.714 0-3.103 1.39-3.103 3.104 0 1.714 1.39 3.103 3.103 3.103 1.713 0 3.103-1.39 3.103-3.103M456.493 228.316c0-1.713-1.39-3.103-3.103-3.103-1.713 0-3.103 1.39-3.103 3.103 0 1.714 1.39 3.103 3.103 3.103 1.714 0 3.103-1.39 3.103-3.104M504.586 196.23c0-1.714-1.39-3.103-3.103-3.103-1.713 0-3.102 1.39-3.102 3.103 0 1.713 1.39 3.103 3.103 3.103 1.714 0 3.103-1.39 3.103-3.103M520.617 212.26c0-1.713-1.39-3.102-3.102-3.102-1.714 0-3.103 1.39-3.103 3.103 0 1.714 1.39 3.104 3.103 3.104 1.713 0 3.102-1.39 3.102-3.103M471.76 244.323c0-1.714-1.39-3.103-3.104-3.103-1.715 0-3.105 1.39-3.105 3.103 0 1.714 1.39 3.103 3.106 3.103 1.714 0 3.103-1.39 3.103-3.103M504.574 332.494c0-1.714-1.39-3.103-3.103-3.103-1.712 0-3.102 1.39-3.102 3.104 0 1.714 1.39 3.103 3.103 3.103 1.715 0 3.104-1.39 3.104-3.103M624.82 260.06c0-1.713-1.39-3.102-3.103-3.102-1.714 0-3.103 1.39-3.103 3.103 0 1.714 1.39 3.104 3.103 3.104 1.713 0 3.103-1.39 3.103-3.103M624.82 292.67c0-1.714-1.39-3.103-3.103-3.103-1.714 0-3.103 1.39-3.103 3.102 0 1.713 1.39 3.102 3.103 3.102 1.713 0 3.103-1.39 3.103-3.103M624.82 340.51c0-1.714-1.39-3.103-3.103-3.103-1.714 0-3.103 1.39-3.103 3.103 0 1.713 1.39 3.102 3.103 3.102 1.713 0 3.103-1.39 3.103-3.102M552.68 436.696c0-1.713-1.39-3.103-3.103-3.103-1.714 0-3.103 1.39-3.103 3.103 0 1.714 1.39 3.103 3.103 3.103 1.713 0 3.103-1.39 3.103-3.104M576.726 396.618c0-1.713-1.39-3.103-3.103-3.103-1.713 0-3.103 1.39-3.103 3.103 0 1.714 1.39 3.103 3.103 3.103 1.714 0 3.103-1.388 3.103-3.102M536.65 420.665c0-1.714-1.39-3.103-3.104-3.103-1.714 0-3.103 1.39-3.103 3.103 0 1.714 1.39 3.103 3.103 3.103 1.713 0 3.103-1.39 3.103-3.103M544.664 396.618c0-1.713-1.39-3.103-3.103-3.103-1.712 0-3.102 1.39-3.102 3.103 0 1.714 1.39 3.103 3.103 3.103 1.715 0 3.104-1.388 3.104-3.102M512.7 388.7c0-1.713-1.39-3.103-3.104-3.103-1.713 0-3.102 1.39-3.102 3.103 0 1.714 1.39 3.105 3.102 3.105 1.714 0 3.103-1.39 3.103-3.105M488.555 348.525c0-1.713-1.39-3.103-3.103-3.103-1.713 0-3.103 1.39-3.103 3.103 0 1.714 1.39 3.103 3.102 3.103 1.714 0 3.103-1.39 3.103-3.103M432.447 404.634c0-1.714-1.39-3.103-3.103-3.103-1.714 0-3.103 1.39-3.103 3.104 0 1.713 1.39 3.103 3.104 3.103 1.713 0 3.103-1.39 3.103-3.103M472.622 428.778c0-1.714-1.39-3.103-3.103-3.103-1.715 0-3.104 1.39-3.104 3.103 0 1.713 1.39 3.104 3.103 3.104 1.712 0 3.102-1.39 3.102-3.104M488.555 452.727c0-1.713-1.39-3.103-3.103-3.103-1.713 0-3.103 1.39-3.103 3.103 0 1.714 1.39 3.103 3.102 3.103 1.714 0 3.103-1.39 3.103-3.103" fill="#C6E1F8"/><path d="M336.26 148.137c0-1.714-1.39-3.103-3.103-3.103-1.713 0-3.103 1.39-3.103 3.103 0 1.713 1.39 3.102 3.103 3.102 1.714 0 3.103-1.39 3.103-3.103M352.29 164.168c0-1.714-1.388-3.103-3.102-3.103-1.713 0-3.103 1.39-3.103 3.103 0 1.713 1.39 3.103 3.103 3.103 1.714 0 3.103-1.39 3.103-3.102M552.685 212.265c0-1.713-1.39-3.103-3.103-3.103-1.715 0-3.103 1.39-3.103 3.103 0 1.714 1.387 3.105 3.102 3.105 1.714 0 3.103-1.39 3.103-3.105M536.65 372.572c0-1.714-1.39-3.103-3.104-3.103-1.714 0-3.103 1.388-3.103 3.102 0 1.713 1.39 3.103 3.103 3.103 1.713 0 3.103-1.39 3.103-3.103M672.913 284.4c0-1.713-1.39-3.102-3.103-3.102-1.714 0-3.103 1.39-3.103 3.103 0 1.714 1.39 3.104 3.103 3.104 1.713 0 3.103-1.39 3.103-3.103M729.467 324.478c0-1.713-1.39-3.102-3.103-3.102-1.714 0-3.103 1.39-3.103 3.102 0 1.714 1.39 3.103 3.104 3.103 1.714 0 3.103-1.388 3.103-3.102M552.68 124.09c0-1.714-1.39-3.103-3.103-3.103-1.714 0-3.103 1.39-3.103 3.103 0 1.713 1.39 3.103 3.103 3.103 1.713 0 3.103-1.39 3.103-3.103M384.353 164.168c0-1.714-1.39-3.103-3.103-3.103-1.713 0-3.102 1.39-3.102 3.103 0 1.713 1.39 3.103 3.102 3.103 1.714 0 3.103-1.39 3.103-3.102M296.182 124.994c0-1.713-1.39-3.104-3.103-3.104-1.714 0-3.103 1.39-3.103 3.104 0 1.714 1.39 3.103 3.102 3.103 1.713 0 3.102-1.39 3.102-3.103M256.105 140.12c0-1.713-1.39-3.102-3.103-3.102-1.714 0-3.103 1.39-3.103 3.103 0 1.715 1.388 3.104 3.102 3.104 1.713 0 3.103-1.39 3.103-3.103" fill="#9ED9FF"/><path d="M264.12 148.137c0-1.714-1.39-3.103-3.103-3.103-1.713 0-3.103 1.39-3.103 3.103 0 1.713 1.39 3.102 3.103 3.102 1.714 0 3.103-1.39 3.103-3.103M512.602 100.043c0-1.713-1.39-3.103-3.103-3.103-1.715 0-3.104 1.39-3.104 3.103 0 1.714 1.39 3.103 3.103 3.103 1.713 0 3.102-1.39 3.102-3.103M320.23 204.245c0-1.713-1.39-3.103-3.104-3.103-1.713 0-3.103 1.39-3.103 3.103 0 1.714 1.39 3.103 3.103 3.103 1.714 0 3.103-1.39 3.103-3.103M432.447 381.123c0-1.714-1.39-3.103-3.103-3.103-1.714 0-3.103 1.39-3.103 3.103 0 1.713 1.39 3.103 3.104 3.103 1.713 0 3.103-1.39 3.103-3.103M288.01 364.556c0-1.713-1.39-3.103-3.103-3.103-1.715 0-3.104 1.39-3.104 3.103 0 1.714 1.39 3.103 3.104 3.103 1.714 0 3.103-1.39 3.103-3.104M216.427 404.634c0-1.714-1.39-3.103-3.103-3.103-1.715 0-3.103 1.39-3.103 3.104 0 1.713 1.39 3.103 3.104 3.103 1.714 0 3.103-1.39 3.103-3.103M176.35 148.137c0-1.714-1.39-3.103-3.104-3.103-1.715 0-3.103 1.39-3.103 3.103 0 1.713 1.388 3.102 3.103 3.102 1.714 0 3.103-1.39 3.103-3.103M536.65 484.79c0-1.714-1.39-3.104-3.104-3.104-1.714 0-3.103 1.39-3.103 3.103 0 1.713 1.39 3.102 3.103 3.102 1.713 0 3.103-1.39 3.103-3.103M376.256 412.602c0-1.713-1.388-3.102-3.103-3.102-1.713 0-3.103 1.39-3.103 3.102 0 1.714 1.39 3.103 3.103 3.103 1.715 0 3.103-1.39 3.103-3.103M416.416 428.786c0-1.714-1.39-3.103-3.103-3.103-1.714 0-3.103 1.39-3.103 3.103 0 1.713 1.39 3.104 3.103 3.104 1.713 0 3.103-1.39 3.103-3.104M448.56 460.93c0-1.713-1.388-3.104-3.103-3.104-1.714 0-3.103 1.39-3.103 3.104 0 1.714 1.39 3.103 3.103 3.103 1.715 0 3.102-1.39 3.102-3.103M480.703 493.074c0-1.713-1.387-3.102-3.103-3.102-1.713 0-3.103 1.39-3.103 3.102 0 1.714 1.39 3.103 3.103 3.103 1.716 0 3.103-1.39 3.103-3.103M512.85 525.218c0-1.713-1.39-3.103-3.106-3.103-1.713 0-3.103 1.39-3.103 3.103 0 1.714 1.39 3.105 3.104 3.105 1.716 0 3.105-1.39 3.105-3.105M544.993 557.363c0-1.713-1.39-3.105-3.103-3.105-1.715 0-3.105 1.392-3.105 3.105 0 1.714 1.39 3.103 3.105 3.103 1.714 0 3.103-1.39 3.103-3.103M376.256 444.817c0-1.714-1.388-3.103-3.103-3.103-1.713 0-3.103 1.39-3.103 3.103 0 1.713 1.39 3.104 3.103 3.104 1.715 0 3.103-1.39 3.103-3.103M376.256 476.774c0-1.714-1.388-3.103-3.103-3.103-1.713 0-3.103 1.39-3.103 3.104 0 1.713 1.39 3.103 3.103 3.103 1.715 0 3.103-1.39 3.103-3.103M376.256 509.246c0-1.713-1.388-3.103-3.103-3.103-1.713 0-3.103 1.39-3.103 3.103 0 1.714 1.39 3.105 3.103 3.105 1.715 0 3.103-1.39 3.103-3.104M376.256 540.898c0-1.713-1.388-3.103-3.103-3.103-1.713 0-3.103 1.39-3.103 3.103 0 1.714 1.39 3.103 3.103 3.103 1.715 0 3.103-1.388 3.103-3.102M376.256 572.7c0-1.714-1.388-3.104-3.103-3.104-1.713 0-3.103 1.39-3.103 3.103 0 1.713 1.39 3.102 3.103 3.102 1.715 0 3.103-1.39 3.103-3.103M416.513 412.602c0-1.713-1.39-3.102-3.103-3.102-1.713 0-3.103 1.39-3.103 3.102 0 1.714 1.39 3.103 3.103 3.103 1.714 0 3.103-1.39 3.103-3.103M328.245 412.602c0-1.713-1.39-3.102-3.103-3.102-1.714 0-3.103 1.39-3.103 3.102 0 1.714 1.388 3.103 3.102 3.103 1.713 0 3.103-1.39 3.103-3.103M360.307 428.778c0-1.714-1.39-3.103-3.103-3.103-1.714 0-3.103 1.39-3.103 3.103 0 1.713 1.39 3.104 3.104 3.104 1.713 0 3.103-1.39 3.103-3.104M304.323 445.257c0-1.714-1.39-3.105-3.103-3.105-1.715 0-3.104 1.39-3.104 3.105 0 1.713 1.39 3.103 3.104 3.103 1.714 0 3.103-1.39 3.103-3.103M272.136 476.865c0-1.714-1.39-3.103-3.103-3.103-1.714 0-3.103 1.39-3.103 3.103 0 1.714 1.39 3.103 3.103 3.103 1.713 0 3.103-1.39 3.103-3.103M240.074 508.836c0-1.714-1.39-3.103-3.103-3.103-1.713 0-3.102 1.39-3.102 3.103 0 1.714 1.39 3.103 3.103 3.103 1.714 0 3.104-1.39 3.104-3.104M208.01 540.755c0-1.714-1.388-3.103-3.102-3.103-1.713 0-3.102 1.39-3.102 3.103 0 1.713 1.39 3.103 3.102 3.103 1.714 0 3.103-1.39 3.103-3.103M192.822 572.96c0-1.713-1.387-3.103-3.103-3.103-1.714 0-3.104 1.39-3.104 3.103 0 1.714 1.39 3.103 3.103 3.103 1.715 0 3.102-1.39 3.102-3.103M360.307 460.857c0-1.714-1.39-3.105-3.103-3.105-1.714 0-3.103 1.39-3.103 3.105 0 1.713 1.39 3.102 3.104 3.102 1.713 0 3.103-1.39 3.103-3.103M360.307 492.934c0-1.713-1.39-3.103-3.103-3.103-1.714 0-3.103 1.39-3.103 3.104 0 1.714 1.39 3.103 3.104 3.103 1.713 0 3.103-1.39 3.103-3.103M360.307 525.012c0-1.713-1.39-3.103-3.103-3.103-1.714 0-3.103 1.39-3.103 3.102 0 1.714 1.39 3.105 3.104 3.105 1.713 0 3.103-1.39 3.103-3.105M360.307 557.09c0-1.713-1.39-3.104-3.103-3.104-1.714 0-3.103 1.39-3.103 3.105s1.39 3.104 3.104 3.104c1.713 0 3.103-1.39 3.103-3.103M191.98 589.537c0-1.714-1.39-3.105-3.103-3.105-1.713 0-3.102 1.39-3.102 3.105 0 1.713 1.39 3.103 3.102 3.103 1.714 0 3.103-1.39 3.103-3.103M432.447 220.355c0-1.714-1.39-3.103-3.103-3.103-1.714 0-3.103 1.39-3.103 3.103 0 1.713 1.39 3.104 3.104 3.104 1.713 0 3.103-1.392 3.103-3.105M504.586 180.2c0-1.715-1.39-3.104-3.103-3.104-1.713 0-3.102 1.39-3.102 3.103 0 1.712 1.39 3.102 3.103 3.102 1.714 0 3.103-1.39 3.103-3.103M600.773 244.323c0-1.714-1.39-3.103-3.103-3.103-1.714 0-3.103 1.39-3.103 3.103 0 1.714 1.39 3.103 3.103 3.103 1.714 0 3.103-1.39 3.103-3.103M624.82 372.737c0-1.714-1.39-3.103-3.103-3.103-1.714 0-3.103 1.39-3.103 3.103 0 1.713 1.39 3.103 3.103 3.103 1.713 0 3.103-1.39 3.103-3.103M560.695 452.727c0-1.713-1.39-3.103-3.103-3.103-1.713 0-3.103 1.39-3.103 3.103 0 1.714 1.39 3.103 3.102 3.103 1.714 0 3.103-1.39 3.103-3.103M689.742 300.432c0-1.714-1.387-3.103-3.103-3.103-1.714 0-3.103 1.388-3.103 3.102 0 1.713 1.39 3.103 3.102 3.103 1.715 0 3.102-1.39 3.102-3.103M360.307 124.89c0-1.714-1.39-3.106-3.103-3.106-1.714 0-3.103 1.392-3.103 3.105s1.39 3.102 3.104 3.102c1.713 0 3.103-1.39 3.103-3.103" fill="#9FBACF"/><path d="M400.384 148.137c0-1.714-1.39-3.103-3.102-3.103-1.714 0-3.103 1.39-3.103 3.103 0 1.713 1.388 3.102 3.102 3.102 1.713 0 3.102-1.39 3.102-3.103" fill="#9ED9FF"/><path d="M368.322 108.06c0-1.715-1.39-3.104-3.103-3.104-1.714 0-3.104 1.39-3.104 3.103 0 1.712 1.39 3.102 3.103 3.102 1.713 0 3.102-1.39 3.102-3.103M368.322 124.09c0-1.714-1.39-3.103-3.103-3.103-1.714 0-3.104 1.39-3.104 3.103 0 1.713 1.39 3.103 3.103 3.103 1.713 0 3.102-1.39 3.102-3.103M600.773 380.587c0-1.713-1.39-3.103-3.103-3.103-1.714 0-3.103 1.39-3.103 3.103 0 1.714 1.39 3.103 3.103 3.103 1.714 0 3.103-1.39 3.103-3.103M640.85 276.385c0-1.713-1.39-3.103-3.102-3.103-1.714 0-3.103 1.39-3.103 3.103 0 1.714 1.39 3.103 3.103 3.103 1.713 0 3.103-1.39 3.103-3.103M488.555 300.432c0-1.714-1.39-3.103-3.103-3.103-1.713 0-3.103 1.388-3.103 3.102 0 1.713 1.39 3.103 3.102 3.103 1.714 0 3.103-1.39 3.103-3.103" fill="#BEF3C6"/><path d="M325.14 110.364c1.275 0 2.306-1.034 2.306-2.305 0-1.273-1.03-2.306-2.305-2.306-1.272 0-2.304 1.033-2.304 2.305 0 1.27 1.032 2.304 2.305 2.304" fill="#FFF"/><path d="M325.14 110.364c1.275 0 2.306-1.034 2.306-2.305 0-1.273-1.03-2.306-2.305-2.306-1.272 0-2.304 1.033-2.304 2.305 0 1.27 1.032 2.304 2.305 2.304z" stroke="#C6E1F8" stroke-width="1.5"/><path d="M277.048 150.44c1.274 0 2.305-1.032 2.305-2.304 0-1.27-1.03-2.305-2.305-2.305-1.274 0-2.305 1.035-2.305 2.306 0 1.272 1.03 2.305 2.305 2.305" fill="#FFF"/><path d="M277.048 150.44c1.274 0 2.305-1.032 2.305-2.304 0-1.27-1.03-2.305-2.305-2.305-1.274 0-2.305 1.035-2.305 2.306 0 1.272 1.03 2.305 2.305 2.305z" stroke="#C6E1F8" stroke-width="1.5"/><path d="M309.11 198.535c1.274 0 2.305-1.034 2.305-2.305 0-1.272-1.03-2.305-2.305-2.305-1.273 0-2.305 1.033-2.305 2.305 0 1.27 1.032 2.305 2.305 2.305" fill="#FFF"/><path d="M309.11 198.535c1.274 0 2.305-1.034 2.305-2.305 0-1.272-1.03-2.305-2.305-2.305-1.273 0-2.305 1.033-2.305 2.305 0 1.27 1.032 2.305 2.305 2.305z" stroke="#C6E1F8" stroke-width="1.5"/><path d="M269.032 70.286c1.274 0 2.305-1.033 2.305-2.305 0-1.27-1.03-2.304-2.305-2.304-1.273 0-2.304 1.033-2.304 2.305 0 1.273 1.03 2.306 2.304 2.306" fill="#FFF"/><path d="M269.032 70.286c1.274 0 2.305-1.033 2.305-2.305 0-1.27-1.03-2.304-2.305-2.304-1.273 0-2.304 1.033-2.304 2.305 0 1.273 1.03 2.306 2.304 2.306z" stroke="#C6E1F8" stroke-width="1.5"/><path d="M461.406 70.286c1.273 0 2.304-1.033 2.304-2.305 0-1.27-1.03-2.304-2.304-2.304-1.274 0-2.305 1.033-2.305 2.305 0 1.273 1.032 2.306 2.306 2.306" fill="#FFF"/><path d="M461.406 70.286c1.273 0 2.304-1.033 2.304-2.305 0-1.27-1.03-2.304-2.304-2.304-1.274 0-2.305 1.033-2.305 2.305 0 1.273 1.032 2.306 2.306 2.306z" stroke="#C6E1F8" stroke-width="1.5"/><path d="M453.39 150.44c1.274 0 2.305-1.032 2.305-2.304 0-1.27-1.03-2.305-2.305-2.305-1.274 0-2.305 1.035-2.305 2.306 0 1.272 1.03 2.305 2.305 2.305" fill="#FFF"/><path d="M453.39 150.44c1.274 0 2.305-1.032 2.305-2.304 0-1.27-1.03-2.305-2.305-2.305-1.274 0-2.305 1.035-2.305 2.306 0 1.272 1.03 2.305 2.305 2.305z" stroke="#C6E1F8" stroke-width="1.5"/><path d="M581.64 190.52c1.272 0 2.304-1.034 2.304-2.306s-1.032-2.305-2.305-2.305c-1.275 0-2.306 1.032-2.306 2.304 0 1.272 1.03 2.305 2.305 2.305" fill="#FFF"/><path d="M581.64 190.52c1.272 0 2.304-1.034 2.304-2.306s-1.032-2.305-2.305-2.305c-1.275 0-2.306 1.032-2.306 2.304 0 1.272 1.03 2.305 2.305 2.305z" stroke="#C6E1F8" stroke-width="1.5"/><path d="M493.468 190.52c1.273 0 2.305-1.034 2.305-2.306s-1.032-2.305-2.305-2.305c-1.274 0-2.305 1.032-2.305 2.304 0 1.272 1.03 2.305 2.305 2.305" fill="#FFF"/><path d="M493.468 190.52c1.273 0 2.305-1.034 2.305-2.306s-1.032-2.305-2.305-2.305c-1.274 0-2.305 1.032-2.305 2.304 0 1.272 1.03 2.305 2.305 2.305z" stroke="#C6E1F8" stroke-width="1.5"/><path d="M461.406 238.612c1.273 0 2.304-1.033 2.304-2.305 0-1.27-1.03-2.305-2.304-2.305-1.274 0-2.305 1.034-2.305 2.305 0 1.272 1.032 2.305 2.306 2.305" fill="#FFF"/><path d="M461.406 238.612c1.273 0 2.304-1.033 2.304-2.305 0-1.27-1.03-2.305-2.304-2.305-1.274 0-2.305 1.034-2.305 2.305 0 1.272 1.032 2.305 2.306 2.305z" stroke="#C6E1F8" stroke-width="1.5"/><path d="M477.437 254.643c1.273 0 2.305-1.033 2.305-2.305 0-1.27-1.032-2.305-2.305-2.305-1.274 0-2.305 1.034-2.305 2.305 0 1.272 1.03 2.305 2.305 2.305" fill="#FFF"/><path d="M477.437 254.643c1.273 0 2.305-1.033 2.305-2.305 0-1.27-1.032-2.305-2.305-2.305-1.274 0-2.305 1.034-2.305 2.305 0 1.272 1.03 2.305 2.305 2.305z" stroke="#C6E1F8" stroke-width="1.5"/><path d="M501.483 270.674c1.274 0 2.305-1.033 2.305-2.305 0-1.272-1.03-2.305-2.305-2.305-1.273 0-2.305 1.033-2.305 2.304 0 1.27 1.032 2.304 2.305 2.304" fill="#FFF"/><path d="M501.483 270.674c1.274 0 2.305-1.033 2.305-2.305 0-1.272-1.03-2.305-2.305-2.305-1.273 0-2.305 1.033-2.305 2.304 0 1.27 1.032 2.304 2.305 2.304z" stroke="#C6E1F8" stroke-width="1.5"/><path d="M597.67 398.923c1.273 0 2.305-1.033 2.305-2.305 0-1.272-1.032-2.305-2.305-2.305-1.274 0-2.305 1.033-2.305 2.305 0 1.272 1.03 2.305 2.305 2.305" fill="#FFF"/><path d="M597.67 398.923c1.273 0 2.305-1.033 2.305-2.305 0-1.272-1.032-2.305-2.305-2.305-1.274 0-2.305 1.033-2.305 2.305 0 1.272 1.03 2.305 2.305 2.305z" stroke="#C6E1F8" stroke-width="1.5"/><path d="M557.592 398.923c1.274 0 2.305-1.033 2.305-2.305 0-1.272-1.03-2.305-2.305-2.305-1.274 0-2.305 1.033-2.305 2.305 0 1.272 1.03 2.305 2.305 2.305" fill="#FFF"/><path d="M557.592 398.923c1.274 0 2.305-1.033 2.305-2.305 0-1.272-1.03-2.305-2.305-2.305-1.274 0-2.305 1.033-2.305 2.305 0 1.272 1.03 2.305 2.305 2.305z" stroke="#C6E1F8" stroke-width="1.5"/><path d="M517.526 382.904c1.274 0 2.305-1.033 2.305-2.305 0-1.273-1.03-2.306-2.304-2.306-1.273 0-2.304 1.033-2.304 2.305 0 1.27 1.03 2.304 2.304 2.304" fill="#FFF"/><path d="M517.526 382.904c1.274 0 2.305-1.033 2.305-2.305 0-1.273-1.03-2.306-2.304-2.306-1.273 0-2.304 1.033-2.304 2.305 0 1.27 1.03 2.304 2.304 2.304z" stroke="#C6E1F8" stroke-width="1.5"/><path d="M477.437 358.845c1.273 0 2.305-1.033 2.305-2.305 0-1.27-1.032-2.304-2.305-2.304-1.274 0-2.305 1.033-2.305 2.304 0 1.272 1.03 2.305 2.305 2.305" fill="#FFF"/><path d="M477.437 358.845c1.273 0 2.305-1.033 2.305-2.305 0-1.27-1.032-2.304-2.305-2.304-1.274 0-2.305 1.033-2.305 2.304 0 1.272 1.03 2.305 2.305 2.305z" stroke="#C6E1F8" stroke-width="1.5"/><path d="M437.36 398.923c1.272 0 2.304-1.033 2.304-2.305 0-1.272-1.032-2.305-2.305-2.305-1.275 0-2.306 1.033-2.306 2.305 0 1.272 1.03 2.305 2.305 2.305" fill="#FFF"/><path d="M437.36 398.923c1.272 0 2.304-1.033 2.304-2.305 0-1.272-1.032-2.305-2.305-2.305-1.275 0-2.306 1.033-2.306 2.305 0 1.272 1.03 2.305 2.305 2.305z" stroke="#C6E1F8" stroke-width="1.5"/><path d="M461.23 439.176c1.273 0 2.305-1.034 2.305-2.305 0-1.27-1.032-2.304-2.305-2.304-1.272 0-2.303 1.033-2.303 2.305 0 1.272 1.03 2.306 2.303 2.306" fill="#FFF"/><path d="M461.23 439.176c1.273 0 2.305-1.034 2.305-2.305 0-1.27-1.032-2.304-2.305-2.304-1.272 0-2.303 1.033-2.303 2.305 0 1.272 1.03 2.306 2.303 2.306z" stroke="#C6E1F8" stroke-width="1.5"/><path d="M517.514 487.094c1.274 0 2.305-1.033 2.305-2.305 0-1.273-1.032-2.306-2.306-2.306-1.273 0-2.305 1.033-2.305 2.305 0 1.27 1.03 2.304 2.304 2.304" fill="#FFF"/><path d="M517.514 487.094c1.274 0 2.305-1.033 2.305-2.305 0-1.273-1.032-2.306-2.306-2.306-1.273 0-2.305 1.033-2.305 2.305 0 1.27 1.03 2.304 2.304 2.304z" stroke="#C6E1F8" stroke-width="1.5"/><path d="M541.56 430.985c1.275 0 2.306-1.033 2.306-2.305 0-1.27-1.03-2.305-2.305-2.305-1.273 0-2.304 1.034-2.304 2.305 0 1.272 1.03 2.305 2.305 2.305" fill="#FFF"/><path d="M541.56 430.985c1.275 0 2.306-1.033 2.306-2.305 0-1.27-1.03-2.305-2.305-2.305-1.273 0-2.304 1.034-2.304 2.305 0 1.272 1.03 2.305 2.305 2.305z" stroke="#C6E1F8" stroke-width="1.5"/><path d="M525.53 414.954c1.273 0 2.305-1.033 2.305-2.305 0-1.273-1.032-2.306-2.305-2.306-1.274 0-2.305 1.033-2.305 2.305 0 1.27 1.03 2.304 2.305 2.304" fill="#FFF"/><path d="M525.53 414.954c1.273 0 2.305-1.033 2.305-2.305 0-1.273-1.032-2.306-2.305-2.306-1.274 0-2.305 1.033-2.305 2.305 0 1.27 1.03 2.304 2.305 2.304z" stroke="#C6E1F8" stroke-width="1.5"/><path d="M621.716 278.69c1.274 0 2.305-1.033 2.305-2.305 0-1.272-1.03-2.305-2.304-2.305-1.273 0-2.304 1.033-2.304 2.305 0 1.272 1.03 2.305 2.304 2.305" fill="#FFF"/><path d="M621.716 278.69c1.274 0 2.305-1.033 2.305-2.305 0-1.272-1.03-2.305-2.304-2.305-1.273 0-2.304 1.033-2.304 2.305 0 1.272 1.03 2.305 2.304 2.305z" stroke="#C6E1F8" stroke-width="1.5"/><path d="M621.716 326.783c1.274 0 2.305-1.033 2.305-2.305 0-1.27-1.03-2.305-2.304-2.305-1.273 0-2.304 1.034-2.304 2.305 0 1.272 1.03 2.305 2.304 2.305" fill="#FFF"/><path d="M621.716 326.783c1.274 0 2.305-1.033 2.305-2.305 0-1.27-1.03-2.305-2.304-2.305-1.273 0-2.304 1.034-2.304 2.305 0 1.272 1.03 2.305 2.304 2.305z" stroke="#C6E1F8" stroke-width="1.5"/><path d="M621.716 358.845c1.274 0 2.305-1.033 2.305-2.305 0-1.27-1.03-2.304-2.304-2.304-1.273 0-2.304 1.033-2.304 2.304 0 1.272 1.03 2.305 2.304 2.305" fill="#FFF"/><path d="M621.716 358.845c1.274 0 2.305-1.033 2.305-2.305 0-1.27-1.03-2.304-2.304-2.304-1.273 0-2.304 1.033-2.304 2.304 0 1.272 1.03 2.305 2.304 2.305z" stroke="#C6E1F8" stroke-width="1.5"/><path d="M509.5 206.55c1.272 0 2.304-1.033 2.304-2.305 0-1.272-1.032-2.305-2.305-2.305-1.275 0-2.306 1.033-2.306 2.305 0 1.272 1.03 2.305 2.305 2.305" fill="#FFF"/><path d="M509.5 206.55c1.272 0 2.304-1.033 2.304-2.305 0-1.272-1.032-2.305-2.305-2.305-1.275 0-2.306 1.033-2.306 2.305 0 1.272 1.03 2.305 2.305 2.305z" stroke="#C6E1F8" stroke-width="1.5"/><path d="M309.11 134.41c1.274 0 2.305-1.033 2.305-2.305 0-1.272-1.03-2.305-2.305-2.305-1.273 0-2.305 1.033-2.305 2.305 0 1.272 1.032 2.305 2.305 2.305" fill="#FFF"/><path d="M309.11 134.41c1.274 0 2.305-1.033 2.305-2.305 0-1.272-1.03-2.305-2.305-2.305-1.273 0-2.305 1.033-2.305 2.305 0 1.272 1.032 2.305 2.305 2.305z" stroke="#9ED9FF" stroke-width="1.5"/><path d="M341.172 158.457c1.274 0 2.305-1.033 2.305-2.305 0-1.272-1.03-2.305-2.305-2.305-1.273 0-2.305 1.033-2.305 2.305 0 1.272 1.032 2.305 2.305 2.305" fill="#FFF"/><path d="M341.172 158.457c1.274 0 2.305-1.033 2.305-2.305 0-1.272-1.03-2.305-2.305-2.305-1.273 0-2.305 1.033-2.305 2.305 0 1.272 1.032 2.305 2.305 2.305z" stroke="#9ED9FF" stroke-width="1.5"/><path d="M373.235 126.395c1.273 0 2.304-1.033 2.304-2.305 0-1.272-1.032-2.305-2.305-2.305-1.274 0-2.305 1.033-2.305 2.305 0 1.272 1.03 2.305 2.305 2.305" fill="#FFF"/><path d="M373.235 126.395c1.273 0 2.304-1.033 2.304-2.305 0-1.272-1.032-2.305-2.305-2.305-1.274 0-2.305 1.033-2.305 2.305 0 1.272 1.03 2.305 2.305 2.305z" stroke="#9FBACF" stroke-width="1.5"/><path d="M469.42 150.44c1.275 0 2.306-1.032 2.306-2.304 0-1.27-1.03-2.305-2.305-2.305-1.272 0-2.304 1.035-2.304 2.306 0 1.272 1.032 2.305 2.305 2.305" fill="#FFF"/><path d="M469.42 150.44c1.275 0 2.306-1.032 2.306-2.304 0-1.27-1.03-2.305-2.305-2.305-1.272 0-2.304 1.035-2.304 2.306 0 1.272 1.032 2.305 2.305 2.305z" stroke="#9FBACF" stroke-width="1.5"/><path d="M212.906 110.364c1.274 0 2.305-1.034 2.305-2.305 0-1.273-1.03-2.306-2.304-2.306-1.273 0-2.305 1.033-2.305 2.305 0 1.27 1.033 2.304 2.306 2.304" fill="#FFF"/><path d="M212.906 110.364c1.274 0 2.305-1.034 2.305-2.305 0-1.273-1.03-2.306-2.304-2.306-1.273 0-2.305 1.033-2.305 2.305 0 1.27 1.033 2.304 2.306 2.304z" stroke="#9FBACF" stroke-width="1.5"/><path d="M541.56 134.41c1.275 0 2.306-1.033 2.306-2.305 0-1.272-1.03-2.305-2.305-2.305-1.273 0-2.304 1.033-2.304 2.305 0 1.272 1.03 2.305 2.305 2.305" fill="#FFF"/><path d="M541.56 134.41c1.275 0 2.306-1.033 2.306-2.305 0-1.272-1.03-2.305-2.305-2.305-1.273 0-2.304 1.033-2.304 2.305 0 1.272 1.03 2.305 2.305 2.305z" stroke="#9FBACF" stroke-width="1.5"/><path d="M413.156 206.55c1.272 0 2.303-1.033 2.303-2.305 0-1.272-1.032-2.305-2.304-2.305-1.274 0-2.305 1.033-2.305 2.305 0 1.272 1.032 2.305 2.306 2.305" fill="#FFF"/><path d="M413.156 206.55c1.272 0 2.303-1.033 2.303-2.305 0-1.272-1.032-2.305-2.304-2.305-1.274 0-2.305 1.033-2.305 2.305 0 1.272 1.032 2.305 2.306 2.305z" stroke="#9FBACF" stroke-width="1.5"/><path d="M292.916 230.602c1.273 0 2.305-1.03 2.305-2.305 0-1.272-1.03-2.303-2.304-2.303-1.272 0-2.304 1.03-2.304 2.303 0 1.274 1.032 2.305 2.304 2.305" fill="#FFF"/><path d="M292.916 230.602c1.273 0 2.305-1.03 2.305-2.305 0-1.272-1.03-2.303-2.304-2.303-1.272 0-2.304 1.03-2.304 2.303 0 1.274 1.032 2.305 2.304 2.305z" stroke="#9FBACF" stroke-width="1.5"/><path d="M172.83 455.032c1.272 0 2.303-1.033 2.303-2.305 0-1.272-1.03-2.305-2.304-2.305-1.275 0-2.306 1.033-2.306 2.305 0 1.272 1.03 2.305 2.305 2.305" fill="#FFF"/><path d="M172.83 455.032c1.272 0 2.303-1.033 2.303-2.305 0-1.272-1.03-2.305-2.304-2.305-1.275 0-2.306 1.033-2.306 2.305 0 1.272 1.03 2.305 2.305 2.305z" stroke="#9FBACF" stroke-width="1.5"/><path d="M445.4 366.86c1.272 0 2.304-1.032 2.304-2.304 0-1.272-1.032-2.305-2.305-2.305-1.275 0-2.306 1.034-2.306 2.306s1.03 2.305 2.305 2.305" fill="#FFF"/><path d="M445.4 366.86c1.272 0 2.304-1.032 2.304-2.304 0-1.272-1.032-2.305-2.305-2.305-1.275 0-2.306 1.034-2.306 2.306s1.03 2.305 2.305 2.305z" stroke="#9FBACF" stroke-width="1.5"/><path d="M301.095 383.428c1.273 0 2.305-1.033 2.305-2.305 0-1.272-1.032-2.305-2.305-2.305-1.274 0-2.305 1.033-2.305 2.305 0 1.272 1.03 2.305 2.305 2.305" fill="#FFF"/><path d="M301.095 383.428c1.273 0 2.305-1.033 2.305-2.305 0-1.272-1.032-2.305-2.305-2.305-1.274 0-2.305 1.033-2.305 2.305 0 1.272 1.03 2.305 2.305 2.305z" stroke="#9FBACF" stroke-width="1.5"/><path d="M357.203 414.952c1.274 0 2.305-1.032 2.305-2.305 0-1.272-1.03-2.305-2.305-2.305-1.273 0-2.304 1.033-2.304 2.305 0 1.273 1.03 2.305 2.303 2.305" fill="#FFF"/><path d="M357.203 414.952c1.274 0 2.305-1.032 2.305-2.305 0-1.272-1.03-2.305-2.305-2.305-1.273 0-2.304 1.033-2.304 2.305 0 1.273 1.03 2.305 2.303 2.305z" stroke="#9FBACF" stroke-width="1.5"/><path d="M357.203 447.122c1.274 0 2.305-1.032 2.305-2.305 0-1.272-1.03-2.303-2.305-2.303-1.273 0-2.304 1.03-2.304 2.303s1.03 2.305 2.303 2.305" fill="#FFF"/><path d="M357.203 447.122c1.274 0 2.305-1.032 2.305-2.305 0-1.272-1.03-2.303-2.305-2.303-1.273 0-2.304 1.03-2.304 2.303s1.03 2.305 2.303 2.305z" stroke="#9FBACF" stroke-width="1.5"/><path d="M373.235 431.09c1.273 0 2.304-1.03 2.304-2.304 0-1.272-1.032-2.303-2.305-2.303-1.274 0-2.305 1.03-2.305 2.303s1.03 2.305 2.305 2.305" fill="#FFF"/><path d="M373.235 431.09c1.273 0 2.304-1.03 2.304-2.304 0-1.272-1.032-2.303-2.305-2.303-1.274 0-2.305 1.03-2.305 2.303s1.03 2.305 2.305 2.305z" stroke="#9FBACF" stroke-width="1.5"/><path d="M373.235 463.047c1.273 0 2.304-1.033 2.304-2.304 0-1.272-1.032-2.305-2.305-2.305-1.274 0-2.305 1.033-2.305 2.305 0 1.27 1.03 2.304 2.305 2.304" fill="#FFF"/><path d="M373.235 463.047c1.273 0 2.304-1.033 2.304-2.304 0-1.272-1.032-2.305-2.305-2.305-1.274 0-2.305 1.033-2.305 2.305 0 1.27 1.03 2.304 2.305 2.304z" stroke="#9FBACF" stroke-width="1.5"/><path d="M373.235 495.11c1.273 0 2.304-1.033 2.304-2.305 0-1.272-1.032-2.305-2.305-2.305-1.274 0-2.305 1.033-2.305 2.305 0 1.272 1.03 2.305 2.305 2.305" fill="#FFF"/><path d="M373.235 495.11c1.273 0 2.304-1.033 2.304-2.305 0-1.272-1.032-2.305-2.305-2.305-1.274 0-2.305 1.033-2.305 2.305 0 1.272 1.03 2.305 2.305 2.305z" stroke="#9FBACF" stroke-width="1.5"/><path d="M373.235 527.172c1.273 0 2.304-1.033 2.304-2.305 0-1.272-1.032-2.305-2.305-2.305-1.274 0-2.305 1.033-2.305 2.305 0 1.272 1.03 2.305 2.305 2.305" fill="#FFF"/><path d="M373.235 527.172c1.273 0 2.304-1.033 2.304-2.305 0-1.272-1.032-2.305-2.305-2.305-1.274 0-2.305 1.033-2.305 2.305 0 1.272 1.03 2.305 2.305 2.305z" stroke="#9FBACF" stroke-width="1.5"/><path d="M373.235 559.234c1.273 0 2.304-1.033 2.304-2.305 0-1.273-1.032-2.306-2.305-2.306-1.274 0-2.305 1.033-2.305 2.305 0 1.27 1.03 2.304 2.305 2.304" fill="#FFF"/><path d="M373.235 559.234c1.273 0 2.304-1.033 2.304-2.305 0-1.273-1.032-2.306-2.305-2.306-1.274 0-2.305 1.033-2.305 2.305 0 1.27 1.03 2.304 2.305 2.304z" stroke="#9FBACF" stroke-width="1.5"/><path d="M317.17 431.083c1.273 0 2.304-1.032 2.304-2.305 0-1.272-1.03-2.303-2.305-2.303-1.274 0-2.306 1.03-2.306 2.303s1.032 2.305 2.305 2.305" fill="#FFF"/><path d="M317.17 431.083c1.273 0 2.304-1.032 2.304-2.305 0-1.272-1.03-2.303-2.305-2.303-1.274 0-2.306 1.03-2.306 2.303s1.032 2.305 2.305 2.305z" stroke="#9FBACF" stroke-width="1.5"/><path d="M285.107 463.145c1.274 0 2.305-1.03 2.305-2.305 0-1.272-1.03-2.303-2.305-2.303-1.274 0-2.305 1.03-2.305 2.303 0 1.274 1.03 2.305 2.305 2.305" fill="#FFF"/><path d="M285.107 463.145c1.274 0 2.305-1.03 2.305-2.305 0-1.272-1.03-2.303-2.305-2.303-1.274 0-2.305 1.03-2.305 2.303 0 1.274 1.03 2.305 2.305 2.305z" stroke="#9FBACF" stroke-width="1.5"/><path d="M253.045 495.207c1.273 0 2.305-1.03 2.305-2.305 0-1.272-1.032-2.303-2.305-2.303-1.274 0-2.305 1.03-2.305 2.302 0 1.274 1.03 2.305 2.305 2.305" fill="#FFF"/><path d="M253.045 495.207c1.273 0 2.305-1.03 2.305-2.305 0-1.272-1.032-2.303-2.305-2.303-1.274 0-2.305 1.03-2.305 2.302 0 1.274 1.03 2.305 2.305 2.305z" stroke="#9FBACF" stroke-width="1.5"/><path d="M220.983 527.27c1.273 0 2.305-1.032 2.305-2.306 0-1.27-1.032-2.303-2.305-2.303-1.274 0-2.305 1.033-2.305 2.304 0 1.274 1.03 2.305 2.305 2.305" fill="#FFF"/><path d="M220.983 527.27c1.273 0 2.305-1.032 2.305-2.306 0-1.27-1.032-2.303-2.305-2.303-1.274 0-2.305 1.033-2.305 2.304 0 1.274 1.03 2.305 2.305 2.305z" stroke="#9FBACF" stroke-width="1.5"/><path d="M188.92 559.33c1.274 0 2.305-1.03 2.305-2.303 0-1.272-1.03-2.304-2.304-2.304-1.273 0-2.304 1.032-2.304 2.304 0 1.273 1.03 2.304 2.305 2.304" fill="#FFF"/><path d="M188.92 559.33c1.274 0 2.305-1.03 2.305-2.303 0-1.272-1.03-2.304-2.304-2.304-1.273 0-2.304 1.032-2.304 2.304 0 1.273 1.03 2.304 2.305 2.304z" stroke="#9FBACF" stroke-width="1.5"/><path d="M357.203 479.292c1.274 0 2.305-1.032 2.305-2.304 0-1.273-1.03-2.304-2.305-2.304-1.273 0-2.304 1.03-2.304 2.304 0 1.272 1.03 2.304 2.303 2.304" fill="#FFF"/><path d="M357.203 479.292c1.274 0 2.305-1.032 2.305-2.304 0-1.273-1.03-2.304-2.305-2.304-1.273 0-2.304 1.03-2.304 2.304 0 1.272 1.03 2.304 2.303 2.304z" stroke="#9FBACF" stroke-width="1.5"/><path d="M357.203 511.463c1.274 0 2.305-1.034 2.305-2.305 0-1.272-1.03-2.305-2.305-2.305-1.273 0-2.304 1.033-2.304 2.305 0 1.27 1.03 2.305 2.303 2.305" fill="#FFF"/><path d="M357.203 511.463c1.274 0 2.305-1.034 2.305-2.305 0-1.272-1.03-2.305-2.305-2.305-1.273 0-2.304 1.033-2.304 2.305 0 1.27 1.03 2.305 2.303 2.305z" stroke="#9FBACF" stroke-width="1.5"/><path d="M357.203 543.633c1.274 0 2.305-1.032 2.305-2.305 0-1.272-1.03-2.304-2.305-2.304-1.273 0-2.304 1.032-2.304 2.304 0 1.273 1.03 2.305 2.303 2.305" fill="#FFF"/><path d="M357.203 543.633c1.274 0 2.305-1.032 2.305-2.305 0-1.272-1.03-2.304-2.305-2.304-1.273 0-2.304 1.032-2.304 2.304 0 1.273 1.03 2.305 2.303 2.305z" stroke="#9FBACF" stroke-width="1.5"/><path d="M357.203 575.803c1.274 0 2.305-1.032 2.305-2.303 0-1.274-1.03-2.305-2.305-2.305-1.273 0-2.304 1.03-2.304 2.305 0 1.27 1.03 2.303 2.303 2.303" fill="#FFF"/><path d="M357.203 575.803c1.274 0 2.305-1.032 2.305-2.303 0-1.274-1.03-2.305-2.305-2.305-1.273 0-2.304 1.03-2.304 2.305 0 1.27 1.03 2.303 2.303 2.303z" stroke="#9FBACF" stroke-width="1.5"/><path d="M317.126 414.952c1.273 0 2.305-1.032 2.305-2.305 0-1.272-1.03-2.305-2.304-2.305-1.274 0-2.305 1.033-2.305 2.305 0 1.273 1.032 2.305 2.306 2.305" fill="#FFF"/><path d="M317.126 414.952c1.273 0 2.305-1.032 2.305-2.305 0-1.272-1.03-2.305-2.304-2.305-1.274 0-2.305 1.033-2.305 2.305 0 1.273 1.032 2.305 2.306 2.305z" stroke="#9FBACF" stroke-width="1.5"/><path d="M405.297 414.952c1.273 0 2.305-1.032 2.305-2.305 0-1.272-1.032-2.305-2.305-2.305-1.274 0-2.305 1.033-2.305 2.305 0 1.273 1.03 2.305 2.305 2.305" fill="#FFF"/><path d="M405.297 414.952c1.273 0 2.305-1.032 2.305-2.305 0-1.272-1.032-2.305-2.305-2.305-1.274 0-2.305 1.033-2.305 2.305 0 1.273 1.03 2.305 2.305 2.305z" stroke="#9FBACF" stroke-width="1.5"/><path d="M429.343 447.014c1.274 0 2.305-1.032 2.305-2.305 0-1.273-1.03-2.306-2.305-2.306-1.273 0-2.305 1.033-2.305 2.305 0 1.272 1.032 2.304 2.305 2.304" fill="#FFF"/><path d="M429.343 447.014c1.274 0 2.305-1.032 2.305-2.305 0-1.273-1.03-2.306-2.305-2.306-1.273 0-2.305 1.033-2.305 2.305 0 1.272 1.032 2.304 2.305 2.304z" stroke="#9FBACF" stroke-width="1.5"/><path d="M461.318 478.99c1.274 0 2.305-1.033 2.305-2.305 0-1.272-1.03-2.305-2.305-2.305-1.27 0-2.303 1.033-2.303 2.305 0 1.272 1.032 2.305 2.303 2.305" fill="#FFF"/><path d="M461.318 478.99c1.274 0 2.305-1.033 2.305-2.305 0-1.272-1.03-2.305-2.305-2.305-1.27 0-2.303 1.033-2.303 2.305 0 1.272 1.032 2.305 2.303 2.305z" stroke="#9FBACF" stroke-width="1.5"/><path d="M493.295 510.966c1.274 0 2.305-1.033 2.305-2.305 0-1.27-1.03-2.304-2.305-2.304-1.273 0-2.304 1.033-2.304 2.305 0 1.273 1.032 2.306 2.305 2.306" fill="#FFF"/><path d="M493.295 510.966c1.274 0 2.305-1.033 2.305-2.305 0-1.27-1.03-2.304-2.305-2.304-1.273 0-2.304 1.033-2.304 2.305 0 1.273 1.032 2.306 2.305 2.306z" stroke="#9FBACF" stroke-width="1.5"/><path d="M525.27 542.94c1.274 0 2.306-1.03 2.306-2.302 0-1.274-1.032-2.305-2.305-2.305-1.27 0-2.304 1.03-2.304 2.305 0 1.272 1.033 2.303 2.305 2.303" fill="#FFF"/><path d="M525.27 542.94c1.274 0 2.306-1.03 2.306-2.302 0-1.274-1.032-2.305-2.305-2.305-1.27 0-2.304 1.03-2.304 2.305 0 1.272 1.033 2.303 2.305 2.303z" stroke="#9FBACF" stroke-width="1.5"/><path d="M541.56 575.88c1.275 0 2.306-1.03 2.306-2.305 0-1.272-1.03-2.305-2.305-2.305-1.273 0-2.304 1.033-2.304 2.305 0 1.274 1.03 2.305 2.305 2.305" fill="#FFF"/><path d="M541.56 575.88c1.275 0 2.306-1.03 2.306-2.305 0-1.272-1.03-2.305-2.305-2.305-1.273 0-2.304 1.033-2.304 2.305 0 1.274 1.03 2.305 2.305 2.305z" stroke="#9FBACF" stroke-width="1.5"/><path d="M541.56 591.294c1.275 0 2.306-1.032 2.306-2.305 0-1.273-1.03-2.306-2.305-2.306-1.273 0-2.304 1.033-2.304 2.305 0 1.272 1.03 2.304 2.305 2.304" fill="#FFF"/><path d="M541.56 591.294c1.275 0 2.306-1.032 2.306-2.305 0-1.273-1.03-2.306-2.305-2.306-1.273 0-2.304 1.033-2.304 2.305 0 1.272 1.03 2.304 2.305 2.304z" stroke="#9FBACF" stroke-width="1.5"/><path d="M517.54 406.94c1.272 0 2.303-1.034 2.303-2.306s-1.03-2.305-2.304-2.305c-1.275 0-2.306 1.032-2.306 2.304 0 1.272 1.03 2.305 2.305 2.305" fill="#FFF"/><path d="M517.54 406.94c1.272 0 2.303-1.034 2.303-2.306s-1.03-2.305-2.304-2.305c-1.275 0-2.306 1.032-2.306 2.304 0 1.272 1.03 2.305 2.305 2.305z" stroke="#9FBACF" stroke-width="1.5"/><path d="M485.452 439.8c1.274 0 2.305-1.032 2.305-2.304 0-1.274-1.03-2.305-2.305-2.305-1.273 0-2.305 1.032-2.305 2.306 0 1.272 1.032 2.303 2.305 2.303" fill="#FFF"/><path d="M485.452 439.8c1.274 0 2.305-1.032 2.305-2.304 0-1.274-1.03-2.305-2.305-2.305-1.273 0-2.305 1.032-2.305 2.306 0 1.272 1.032 2.303 2.305 2.303zM253.127 436.696l16.03 16.03-48.093 48.094-16.03-16.03" stroke="#9FBACF" stroke-width="1.5"/><path d="M221.064 484.79l32.063-32.063M309.235 404.634l-32.375 32.374M301.22 396.618l-31.968 31.968" stroke="#C6E1F8" stroke-width="1.5"/><path d="M306.13 404.634c0-1.714 1.39-3.103 3.105-3.103 1.714 0 3.103 1.39 3.103 3.104 0 1.713-1.39 3.103-3.103 3.103-1.715 0-3.105-1.39-3.105-3.103M265.955 428.778c0-1.714 1.39-3.103 3.103-3.103 1.715 0 3.105 1.39 3.105 3.103 0 1.713-1.39 3.104-3.105 3.104-1.713 0-3.103-1.39-3.103-3.104M250.022 452.727c0-1.713 1.39-3.103 3.104-3.103 1.714 0 3.103 1.39 3.103 3.103 0 1.714-1.39 3.103-3.104 3.103-1.715 0-3.104-1.39-3.104-3.103" fill="#C6E1F8"/><path d="M201.928 484.79c0-1.714 1.39-3.104 3.105-3.104 1.714 0 3.103 1.39 3.103 3.103 0 1.713-1.39 3.102-3.103 3.102-1.715 0-3.105-1.39-3.105-3.103" fill="#9FBACF"/><path d="M301.22 398.923c-1.274 0-2.305-1.033-2.305-2.305 0-1.272 1.03-2.305 2.305-2.305 1.272 0 2.303 1.033 2.303 2.305 0 1.272-1.03 2.305-2.303 2.305" fill="#FFF"/><path d="M301.22 398.923c-1.274 0-2.305-1.033-2.305-2.305 0-1.272 1.03-2.305 2.305-2.305 1.272 0 2.303 1.033 2.303 2.305 0 1.272-1.03 2.305-2.303 2.305z" stroke="#C6E1F8" stroke-width="1.5"/><path d="M277.347 439.176c-1.273 0-2.305-1.034-2.305-2.305 0-1.27 1.032-2.304 2.305-2.304 1.274 0 2.305 1.033 2.305 2.305 0 1.272-1.03 2.306-2.305 2.306" fill="#FFF"/><path d="M277.347 439.176c-1.273 0-2.305-1.034-2.305-2.305 0-1.27 1.032-2.304 2.305-2.304 1.274 0 2.305 1.033 2.305 2.305 0 1.272-1.03 2.306-2.305 2.306z" stroke="#C6E1F8" stroke-width="1.5"/><path d="M221.064 487.094c-1.273 0-2.304-1.033-2.304-2.305 0-1.273 1.03-2.306 2.304-2.306 1.272 0 2.304 1.033 2.304 2.305 0 1.27-1.032 2.304-2.304 2.304" fill="#FFF"/><path d="M221.064 487.094c-1.273 0-2.304-1.033-2.304-2.305 0-1.273 1.03-2.306 2.304-2.306 1.272 0 2.304 1.033 2.304 2.305 0 1.27-1.032 2.304-2.304 2.304z" stroke="#C6E1F8" stroke-width="1.5"/><path d="M253.127 439.8c-1.274 0-2.305-1.032-2.305-2.304 0-1.274 1.03-2.305 2.305-2.305 1.27 0 2.303 1.032 2.303 2.306 0 1.272-1.032 2.303-2.303 2.303" fill="#FFF"/><path d="M253.127 439.8c-1.274 0-2.305-1.032-2.305-2.304 0-1.274 1.03-2.305 2.305-2.305 1.27 0 2.303 1.032 2.303 2.306 0 1.272-1.032 2.303-2.303 2.303z" stroke="#9FBACF" stroke-width="1.5"/><path d="M589.313 198.535c1.274 0 2.305-1.034 2.305-2.305 0-1.272-1.03-2.305-2.305-2.305-1.273 0-2.305 1.033-2.305 2.305 0 1.27 1.032 2.305 2.305 2.305" fill="#FFF"/><path d="M589.313 198.535c1.274 0 2.305-1.034 2.305-2.305 0-1.272-1.03-2.305-2.305-2.305-1.273 0-2.305 1.033-2.305 2.305 0 1.27 1.032 2.305 2.305 2.305z" stroke="#9FBACF" stroke-width="1.5"/><path d="M621.716 246.865c1.274 0 2.305-1.03 2.305-2.305 0-1.27-1.03-2.303-2.304-2.303-1.273 0-2.304 1.032-2.304 2.303 0 1.274 1.03 2.305 2.304 2.305" fill="#FFF"/><path d="M621.716 246.865c1.274 0 2.305-1.03 2.305-2.305 0-1.27-1.03-2.303-2.304-2.303-1.273 0-2.304 1.032-2.304 2.303 0 1.274 1.03 2.305 2.304 2.305z" stroke="#9FBACF" stroke-width="1.5"/><path d="M685.84 326.783c1.274 0 2.306-1.033 2.306-2.305 0-1.27-1.032-2.305-2.305-2.305-1.273 0-2.304 1.034-2.304 2.305 0 1.272 1.03 2.305 2.305 2.305" fill="#FFF"/><path d="M685.84 326.783c1.274 0 2.306-1.033 2.306-2.305 0-1.27-1.032-2.305-2.305-2.305-1.273 0-2.304 1.034-2.304 2.305 0 1.272 1.03 2.305 2.305 2.305z" stroke="#9FBACF" stroke-width="1.5"/><path d="M389.266 158.457c1.273 0 2.305-1.033 2.305-2.305 0-1.272-1.03-2.305-2.304-2.305-1.274 0-2.305 1.033-2.305 2.305 0 1.272 1.032 2.305 2.306 2.305" fill="#FFF"/><path d="M389.266 158.457c1.273 0 2.305-1.033 2.305-2.305 0-1.272-1.03-2.305-2.304-2.305-1.274 0-2.305 1.033-2.305 2.305 0 1.272 1.032 2.305 2.306 2.305z" stroke="#9ED9FF" stroke-width="1.5"/><path d="M421.328 134.41c1.273 0 2.305-1.033 2.305-2.305 0-1.272-1.032-2.305-2.305-2.305-1.274 0-2.305 1.033-2.305 2.305 0 1.272 1.03 2.305 2.305 2.305" fill="#FFF"/><path d="M421.328 134.41c1.273 0 2.305-1.033 2.305-2.305 0-1.272-1.032-2.305-2.305-2.305-1.274 0-2.305 1.033-2.305 2.305 0 1.272 1.03 2.305 2.305 2.305z" stroke="#9ED9FF" stroke-width="1.5"/><path d="M437.36 126.395c1.272 0 2.304-1.033 2.304-2.305 0-1.272-1.032-2.305-2.305-2.305-1.275 0-2.306 1.033-2.306 2.305 0 1.272 1.03 2.305 2.305 2.305" fill="#FFF"/><path d="M437.36 126.395c1.272 0 2.304-1.033 2.304-2.305 0-1.272-1.032-2.305-2.305-2.305-1.275 0-2.306 1.033-2.306 2.305 0 1.272 1.03 2.305 2.305 2.305z" stroke="#9ED9FF" stroke-width="1.5"/><path d="M509.5 174.488c1.272 0 2.304-1.033 2.304-2.305 0-1.272-1.032-2.305-2.305-2.305-1.275 0-2.306 1.033-2.306 2.305 0 1.272 1.03 2.305 2.305 2.305" fill="#FFF"/><path d="M509.5 174.488c1.272 0 2.304-1.033 2.304-2.305 0-1.272-1.032-2.305-2.305-2.305-1.275 0-2.306 1.033-2.306 2.305 0 1.272 1.03 2.305 2.305 2.305z" stroke="#9ED9FF" stroke-width="1.5"/><path d="M533.545 230.597c1.274 0 2.305-1.033 2.305-2.305 0-1.272-1.03-2.305-2.305-2.305-1.273 0-2.304 1.033-2.304 2.305 0 1.272 1.032 2.305 2.305 2.305" fill="#FFF"/><path d="M533.545 230.597c1.274 0 2.305-1.033 2.305-2.305 0-1.272-1.03-2.305-2.305-2.305-1.273 0-2.304 1.033-2.304 2.305 0 1.272 1.032 2.305 2.305 2.305z" stroke="#9ED9FF" stroke-width="1.5"/><path d="M669.81 342.814c1.273 0 2.305-1.033 2.305-2.305 0-1.272-1.032-2.306-2.305-2.306-1.274 0-2.305 1.034-2.305 2.305 0 1.27 1.03 2.304 2.305 2.304" fill="#FFF"/><path d="M669.81 342.814c1.273 0 2.305-1.033 2.305-2.305 0-1.272-1.032-2.306-2.305-2.306-1.274 0-2.305 1.034-2.305 2.305 0 1.27 1.03 2.304 2.305 2.304z" stroke="#9ED9FF" stroke-width="1.5"/><path d="M726.512 302.892c1.273 0 2.305-1.03 2.305-2.305 0-1.27-1.032-2.303-2.305-2.303-1.272 0-2.305 1.032-2.305 2.303 0 1.274 1.033 2.305 2.305 2.305" fill="#FFF"/><path d="M726.512 302.892c1.273 0 2.305-1.03 2.305-2.305 0-1.27-1.032-2.303-2.305-2.303-1.272 0-2.305 1.032-2.305 2.303 0 1.274 1.033 2.305 2.305 2.305z" stroke="#9ED9FF" stroke-width="1.5"/><path d="M597.67 182.503c1.273 0 2.305-1.033 2.305-2.304 0-1.273-1.032-2.306-2.305-2.306-1.274 0-2.305 1.033-2.305 2.305 0 1.27 1.03 2.303 2.305 2.303" fill="#FFF"/><path d="M597.67 182.503c1.273 0 2.305-1.033 2.305-2.304 0-1.273-1.032-2.306-2.305-2.306-1.274 0-2.305 1.033-2.305 2.305 0 1.27 1.03 2.303 2.305 2.303z" stroke="#9ED9FF" stroke-width="1.5"/><path d="M469.42 134.41c1.275 0 2.306-1.033 2.306-2.305 0-1.272-1.03-2.305-2.305-2.305-1.272 0-2.304 1.033-2.304 2.305 0 1.272 1.032 2.305 2.305 2.305" fill="#FFF"/><path d="M469.42 134.41c1.275 0 2.306-1.033 2.306-2.305 0-1.272-1.03-2.305-2.305-2.305-1.272 0-2.304 1.033-2.304 2.305 0 1.272 1.032 2.305 2.305 2.305z" stroke="#9ED9FF" stroke-width="1.5"/><path d="M517.514 94.332c1.274 0 2.305-1.033 2.305-2.304 0-1.272-1.032-2.305-2.306-2.305-1.273 0-2.305 1.033-2.305 2.305 0 1.27 1.03 2.304 2.304 2.304" fill="#FFF"/><path d="M517.514 94.332c1.274 0 2.305-1.033 2.305-2.304 0-1.272-1.032-2.305-2.306-2.305-1.273 0-2.305 1.033-2.305 2.305 0 1.27 1.03 2.304 2.304 2.304z" stroke="#9ED9FF" stroke-width="1.5"/><path d="M365.22 86.317c1.273 0 2.304-1.033 2.304-2.305 0-1.272-1.03-2.305-2.305-2.305-1.275 0-2.306 1.033-2.306 2.305 0 1.272 1.03 2.305 2.305 2.305" fill="#FFF"/><path d="M365.22 86.317c1.273 0 2.304-1.033 2.304-2.305 0-1.272-1.03-2.305-2.305-2.305-1.275 0-2.306 1.033-2.306 2.305 0 1.272 1.03 2.305 2.305 2.305z" stroke="#BEF3C6" stroke-width="1.5"/><path d="M365.22 166.472c1.273 0 2.304-1.033 2.304-2.305 0-1.27-1.03-2.304-2.305-2.304-1.275 0-2.306 1.033-2.306 2.304 0 1.272 1.03 2.305 2.305 2.305" fill="#FFF"/><path d="M365.22 166.472c1.273 0 2.304-1.033 2.304-2.305 0-1.27-1.03-2.304-2.305-2.304-1.275 0-2.306 1.033-2.306 2.304 0 1.272 1.03 2.305 2.305 2.305z" stroke="#BEF3C6" stroke-width="1.5"/><path d="M597.67 262.66c1.273 0 2.305-1.034 2.305-2.306s-1.032-2.305-2.305-2.305c-1.274 0-2.305 1.032-2.305 2.304 0 1.272 1.03 2.305 2.305 2.305" fill="#FFF"/><path d="M597.67 262.66c1.273 0 2.305-1.034 2.305-2.306s-1.032-2.305-2.305-2.305c-1.274 0-2.305 1.032-2.305 2.304 0 1.272 1.03 2.305 2.305 2.305z" stroke="#BEF3C6" stroke-width="1.5"/><path stroke="#9FBACF" stroke-width="1.5" d="M132.75 244.323h32.063l8.016-8.016v-8.015l-32.064-32.062"/><path stroke="#BEF3C6" stroke-width="1.5" d="M132.75 260.354h40.08v8.016h-40.08v8.015h40.08v8.016h-40.08v8.016h40.08v8.016h-40.08v8.015h40.08v8.016h-40.08v8.015h40.08v8.016h-40.08v8.016h40.08v8.015h-40.08v8.016h40.08v8.016h-40.08v8.016h40.08v8.015h-40.08"/><path stroke="#C6E1F8" stroke-width="1.5" d="M180.844 436.696l-40.078-40.078h-8.015M156.797 396.618l32.063 32.063M172.83 396.618l24.045 24.047M188.86 396.618l16.03 16.03"/><path d="M220.922 172.183l-40.16 40.16" stroke="#9ED9FF" stroke-width="1.5"/><path stroke="#C6E1F8" stroke-width="1.5" d="M212.906 164.168l-32.062 32.062h-24.047l-8.015-8.016"/><path d="M209.803 164.168c0-1.714 1.39-3.103 3.103-3.103 1.713 0 3.103 1.39 3.103 3.103 0 1.713-1.39 3.103-3.104 3.103-1.714 0-3.103-1.39-3.103-3.102M177.74 436.696c0-1.713 1.39-3.103 3.104-3.103 1.713 0 3.103 1.39 3.103 3.103 0 1.714-1.39 3.103-3.103 3.103-1.714 0-3.103-1.39-3.103-3.104M153.694 396.618c0-1.713 1.39-3.103 3.103-3.103 1.714 0 3.103 1.39 3.103 3.103 0 1.714-1.39 3.103-3.103 3.103-1.713 0-3.103-1.388-3.103-3.102M193.772 420.665c0-1.714 1.39-3.103 3.103-3.103 1.713 0 3.103 1.39 3.103 3.103 0 1.714-1.39 3.103-3.103 3.103-1.714 0-3.103-1.39-3.103-3.103M185.756 396.618c0-1.713 1.39-3.103 3.103-3.103 1.713 0 3.102 1.39 3.102 3.103 0 1.714-1.39 3.103-3.103 3.103-1.714 0-3.104-1.388-3.104-3.102" fill="#C6E1F8"/><path d="M177.62 212.383c0-1.714 1.388-3.103 3.102-3.103s3.103 1.39 3.103 3.103c0 1.713-1.39 3.104-3.103 3.104-1.714 0-3.103-1.39-3.103-3.104M153.74 148.137c0-1.714 1.39-3.103 3.106-3.103 1.713 0 3.103 1.39 3.103 3.103 0 1.713-1.39 3.102-3.104 3.102-1.715 0-3.105-1.39-3.105-3.103M201.82 100.06c0-1.715 1.388-3.106 3.103-3.106 1.714 0 3.103 1.39 3.103 3.105 0 1.712-1.39 3.102-3.103 3.102-1.715 0-3.102-1.39-3.102-3.103" fill="#9ED9FF"/><path d="M129.648 244.323c0-1.714 1.39-3.103 3.102-3.103 1.714 0 3.103 1.39 3.103 3.103 0 1.714-1.39 3.103-3.103 3.103-1.713 0-3.102-1.39-3.102-3.103" fill="#9FBACF"/><path d="M129.648 380.587c0-1.713 1.39-3.103 3.102-3.103 1.714 0 3.103 1.39 3.103 3.103 0 1.714-1.39 3.103-3.103 3.103-1.713 0-3.102-1.39-3.102-3.103" fill="#BEF3C6"/><path d="M148.782 190.52c-1.274 0-2.305-1.034-2.305-2.306s1.03-2.305 2.305-2.305c1.273 0 2.305 1.032 2.305 2.304 0 1.272-1.032 2.305-2.305 2.305" fill="#FFF"/><path d="M148.782 190.52c-1.274 0-2.305-1.034-2.305-2.306s1.03-2.305 2.305-2.305c1.273 0 2.305 1.032 2.305 2.304 0 1.272-1.032 2.305-2.305 2.305z" stroke="#C6E1F8" stroke-width="1.5"/><path d="M132.75 398.923c-1.273 0-2.304-1.033-2.304-2.305 0-1.272 1.03-2.305 2.305-2.305 1.274 0 2.306 1.033 2.306 2.305 0 1.272-1.032 2.305-2.305 2.305" fill="#FFF"/><path d="M132.75 398.923c-1.273 0-2.304-1.033-2.304-2.305 0-1.272 1.03-2.305 2.305-2.305 1.274 0 2.306 1.033 2.306 2.305 0 1.272-1.032 2.305-2.305 2.305z" stroke="#C6E1F8" stroke-width="1.5"/><path d="M172.83 398.923c-1.275 0-2.306-1.033-2.306-2.305 0-1.272 1.03-2.305 2.305-2.305 1.272 0 2.303 1.033 2.303 2.305 0 1.272-1.03 2.305-2.304 2.305" fill="#FFF"/><path d="M172.83 398.923c-1.275 0-2.306-1.033-2.306-2.305 0-1.272 1.03-2.305 2.305-2.305 1.272 0 2.303 1.033 2.303 2.305 0 1.272-1.03 2.305-2.304 2.305z" stroke="#C6E1F8" stroke-width="1.5"/><path d="M188.86 430.985c-1.274 0-2.305-1.033-2.305-2.305 0-1.27 1.03-2.305 2.305-2.305 1.273 0 2.305 1.034 2.305 2.305 0 1.272-1.032 2.305-2.305 2.305" fill="#FFF"/><path d="M188.86 430.985c-1.274 0-2.305-1.033-2.305-2.305 0-1.27 1.03-2.305 2.305-2.305 1.273 0 2.305 1.034 2.305 2.305 0 1.272-1.032 2.305-2.305 2.305z" stroke="#C6E1F8" stroke-width="1.5"/><path d="M204.89 414.954c-1.273 0-2.304-1.033-2.304-2.305 0-1.273 1.03-2.306 2.305-2.306 1.274 0 2.306 1.033 2.306 2.305 0 1.27-1.032 2.304-2.305 2.304" fill="#FFF"/><path d="M204.89 414.954c-1.273 0-2.304-1.033-2.304-2.305 0-1.273 1.03-2.306 2.305-2.306 1.274 0 2.306 1.033 2.306 2.305 0 1.27-1.032 2.304-2.305 2.304z" stroke="#C6E1F8" stroke-width="1.5"/><path d="M141.107 198.535c-1.273 0-2.305-1.034-2.305-2.305 0-1.272 1.032-2.305 2.305-2.305 1.274 0 2.305 1.033 2.305 2.305 0 1.27-1.03 2.305-2.305 2.305" fill="#FFF"/><path d="M141.107 198.535c-1.273 0-2.305-1.034-2.305-2.305 0-1.272 1.032-2.305 2.305-2.305 1.274 0 2.305 1.033 2.305 2.305 0 1.27-1.03 2.305-2.305 2.305z" stroke="#9FBACF" stroke-width="1.5"/><path d="M228.955 182.503c-1.274 0-2.305-1.033-2.305-2.304 0-1.273 1.03-2.306 2.305-2.306 1.273 0 2.305 1.033 2.305 2.305 0 1.27-1.032 2.303-2.305 2.303" fill="#FFF"/><path d="M228.955 182.503c-1.274 0-2.305-1.033-2.305-2.304 0-1.273 1.03-2.306 2.305-2.306 1.273 0 2.305 1.033 2.305 2.305 0 1.27-1.032 2.303-2.305 2.303z" stroke="#9FBACF" stroke-width="1.5"/><path d="M220.922 174.488c-1.274 0-2.305-1.033-2.305-2.305 0-1.272 1.03-2.305 2.305-2.305 1.273 0 2.305 1.033 2.305 2.305 0 1.272-1.032 2.305-2.305 2.305" fill="#FFF"/><path d="M220.922 174.488c-1.274 0-2.305-1.033-2.305-2.305 0-1.272 1.03-2.305 2.305-2.305 1.273 0 2.305 1.033 2.305 2.305 0 1.272-1.032 2.305-2.305 2.305z" stroke="#9ED9FF" stroke-width="1.5"/><path d="M132.768 182.503c-1.273 0-2.305-1.033-2.305-2.304 0-1.273 1.032-2.306 2.305-2.306 1.274 0 2.305 1.033 2.305 2.305 0 1.27-1.03 2.303-2.305 2.303" fill="#FFF"/><path d="M132.768 182.503c-1.273 0-2.305-1.033-2.305-2.304 0-1.273 1.032-2.306 2.305-2.306 1.274 0 2.305 1.033 2.305 2.305 0 1.27-1.03 2.303-2.305 2.303z" stroke="#9ED9FF" stroke-width="1.5"/><path d="M132.75 262.66c-1.273 0-2.304-1.034-2.304-2.306s1.03-2.305 2.305-2.305c1.274 0 2.306 1.032 2.306 2.304 0 1.272-1.032 2.305-2.305 2.305" fill="#FFF"/><path d="M132.75 262.66c-1.273 0-2.304-1.034-2.304-2.306s1.03-2.305 2.305-2.305c1.274 0 2.306 1.032 2.306 2.304 0 1.272-1.032 2.305-2.305 2.305z" stroke="#BEF3C6" stroke-width="1.5"/><path d="M637.748 342.814c1.273 0 2.304-1.033 2.304-2.305 0-1.272-1.03-2.306-2.304-2.306-1.274 0-2.305 1.034-2.305 2.305 0 1.27 1.03 2.304 2.305 2.304" fill="#FFF"/><path d="M637.748 342.814c1.273 0 2.304-1.033 2.304-2.305 0-1.272-1.03-2.306-2.304-2.306-1.274 0-2.305 1.034-2.305 2.305 0 1.27 1.03 2.304 2.305 2.304z" stroke="#BEF3C6" stroke-width="1.5"/><path stroke="#9FBACF" stroke-width="1.5" d="M108.768 244.323l-7.994-.02-32.083 32.082v64.125l32.063 32.062 8.015.176"/><path stroke="#9ED9FF" stroke-width="1.5" d="M60.675 284.4l-8.015 8.016v40.078l8.015 8.016"/><path stroke="#9FBACF" stroke-width="1.5" d="M44.644 300.432H36.63v24.046h8.014"/><path stroke="#9ED9FF" stroke-width="1.5" d="M4.12 300.432h24.493v24.046H4.12"/><path stroke="#C6E1F8" stroke-width="1.5" d="M108.768 276.385h-8.015l-8.016-8.015v-8.016h16.03M108.768 340.51h-8.015l-8.016 8.015v8.016h16.03"/><path stroke="#BEF3C6" stroke-width="1.5" d="M92.737 276.385h-8.015l-8.016 8.016v48.094l8.016 8.016h8.015"/><path stroke="#C6E1F8" stroke-width="1.5" d="M108.768 292.416h-8.015l-8.016 8.016v16.03l8.016 8.016h8.015"/><path d="M105.665 260.06c0-1.713 1.39-3.102 3.103-3.102 1.714 0 3.103 1.39 3.103 3.103 0 1.714-1.388 3.104-3.102 3.104-1.713 0-3.103-1.39-3.103-3.103M105.665 292.67c0-1.714 1.39-3.103 3.103-3.103 1.714 0 3.103 1.39 3.103 3.102 0 1.713-1.388 3.102-3.102 3.102-1.713 0-3.103-1.39-3.103-3.103M105.665 340.51c0-1.714 1.39-3.103 3.103-3.103 1.714 0 3.103 1.39 3.103 3.103 0 1.713-1.388 3.102-3.102 3.102-1.713 0-3.103-1.39-3.103-3.102" fill="#C6E1F8"/><path d="M57.572 284.4c0-1.713 1.39-3.102 3.103-3.102 1.714 0 3.103 1.39 3.103 3.103 0 1.714-1.39 3.104-3.103 3.104-1.714 0-3.103-1.39-3.103-3.103M1.018 324.478c0-1.713 1.39-3.102 3.103-3.102 1.714 0 3.104 1.39 3.104 3.102 0 1.714-1.39 3.103-3.103 3.103-1.713 0-3.102-1.388-3.102-3.102" fill="#9ED9FF"/><path d="M105.637 372.572c0-1.714 1.39-3.103 3.103-3.103 1.714 0 3.103 1.388 3.103 3.102 0 1.713-1.39 3.103-3.103 3.103-1.713 0-3.103-1.39-3.103-3.103M40.74 300.432c0-1.714 1.39-3.103 3.105-3.103 1.714 0 3.103 1.388 3.103 3.102 0 1.713-1.39 3.103-3.103 3.103-1.715 0-3.104-1.39-3.104-3.103" fill="#9FBACF"/><path d="M89.634 276.385c0-1.713 1.39-3.103 3.103-3.103 1.714 0 3.103 1.39 3.103 3.103 0 1.714-1.39 3.103-3.103 3.103-1.713 0-3.103-1.39-3.103-3.103" fill="#BEF3C6"/><path d="M108.768 278.69c-1.273 0-2.304-1.033-2.304-2.305 0-1.272 1.03-2.305 2.304-2.305 1.274 0 2.305 1.033 2.305 2.305 0 1.272-1.03 2.305-2.305 2.305" fill="#FFF"/><path d="M108.768 278.69c-1.273 0-2.304-1.033-2.304-2.305 0-1.272 1.03-2.305 2.304-2.305 1.274 0 2.305 1.033 2.305 2.305 0 1.272-1.03 2.305-2.305 2.305z" stroke="#C6E1F8" stroke-width="1.5"/><path d="M108.768 326.783c-1.273 0-2.304-1.033-2.304-2.305 0-1.27 1.03-2.305 2.304-2.305 1.274 0 2.305 1.034 2.305 2.305 0 1.272-1.03 2.305-2.305 2.305" fill="#FFF"/><path d="M108.768 326.783c-1.273 0-2.304-1.033-2.304-2.305 0-1.27 1.03-2.305 2.304-2.305 1.274 0 2.305 1.034 2.305 2.305 0 1.272-1.03 2.305-2.305 2.305z" stroke="#C6E1F8" stroke-width="1.5"/><path d="M108.768 358.845c-1.273 0-2.304-1.033-2.304-2.305 0-1.27 1.03-2.304 2.304-2.304 1.274 0 2.305 1.033 2.305 2.304 0 1.272-1.03 2.305-2.305 2.305" fill="#FFF"/><path d="M108.768 358.845c-1.273 0-2.304-1.033-2.304-2.305 0-1.27 1.03-2.304 2.304-2.304 1.274 0 2.305 1.033 2.305 2.304 0 1.272-1.03 2.305-2.305 2.305z" stroke="#C6E1F8" stroke-width="1.5"/><path d="M108.768 246.628c-1.273 0-2.304-1.033-2.304-2.305 0-1.272 1.03-2.305 2.304-2.305 1.274 0 2.305 1.033 2.305 2.305 0 1.272-1.03 2.305-2.305 2.305" fill="#FFF"/><path d="M108.768 246.628c-1.273 0-2.304-1.033-2.304-2.305 0-1.272 1.03-2.305 2.304-2.305 1.274 0 2.305 1.033 2.305 2.305 0 1.272-1.03 2.305-2.305 2.305z" stroke="#9FBACF" stroke-width="1.5"/><path d="M44.644 326.783c-1.273 0-2.305-1.033-2.305-2.305 0-1.27 1.03-2.305 2.304-2.305 1.274 0 2.305 1.034 2.305 2.305 0 1.272-1.032 2.305-2.306 2.305" fill="#FFF"/><path d="M44.644 326.783c-1.273 0-2.305-1.033-2.305-2.305 0-1.27 1.03-2.305 2.304-2.305 1.274 0 2.305 1.034 2.305 2.305 0 1.272-1.032 2.305-2.306 2.305z" stroke="#9FBACF" stroke-width="1.5"/><path d="M60.675 342.814c-1.273 0-2.305-1.033-2.305-2.305 0-1.272 1.032-2.306 2.305-2.306 1.274 0 2.305 1.034 2.305 2.305 0 1.27-1.03 2.304-2.305 2.304" fill="#FFF"/><path d="M60.675 342.814c-1.273 0-2.305-1.033-2.305-2.305 0-1.272 1.032-2.306 2.305-2.306 1.274 0 2.305 1.034 2.305 2.305 0 1.27-1.03 2.304-2.305 2.304z" stroke="#9ED9FF" stroke-width="1.5"/><path d="M3.973 302.892c-1.273 0-2.305-1.03-2.305-2.305 0-1.27 1.032-2.303 2.305-2.303 1.272 0 2.303 1.032 2.303 2.303 0 1.274-1.03 2.305-2.303 2.305" fill="#FFF"/><path d="M3.973 302.892c-1.273 0-2.305-1.03-2.305-2.305 0-1.27 1.032-2.303 2.305-2.303 1.272 0 2.303 1.032 2.303 2.303 0 1.274-1.03 2.305-2.303 2.305z" stroke="#9ED9FF" stroke-width="1.5"/><path d="M92.737 342.814c-1.273 0-2.305-1.033-2.305-2.305 0-1.272 1.032-2.306 2.305-2.306 1.274 0 2.305 1.034 2.305 2.305 0 1.27-1.03 2.304-2.305 2.304" fill="#FFF"/><path d="M92.737 342.814c-1.273 0-2.305-1.033-2.305-2.305 0-1.272 1.032-2.306 2.305-2.306 1.274 0 2.305 1.034 2.305 2.305 0 1.27-1.03 2.304-2.305 2.304z" stroke="#BEF3C6" stroke-width="1.5"/><path d="M517.514 302.737c1.274 0 2.305-1.034 2.305-2.305 0-1.272-1.032-2.305-2.306-2.305-1.273 0-2.305 1.033-2.305 2.305 0 1.27 1.03 2.305 2.304 2.305" fill="#FFF"/><path d="M517.514 302.737c1.274 0 2.305-1.034 2.305-2.305 0-1.272-1.032-2.305-2.306-2.305-1.273 0-2.305 1.033-2.305 2.305 0 1.27 1.03 2.305 2.304 2.305z" stroke="#BEF3C6" stroke-width="1.5"/><path stroke="#9ED9FF" stroke-width="1.5" d="M197.293 372.572h8.015l48.093-48.094v-48.093l-48.092-48.093h-8.015"/><path d="M253.4 356.54l-32.413 32.414M245.386 348.525l-32.37 32.37M229.355 268.37h-8.016l-16.032 16.03v32.063l16.03 16.03h8.165" stroke="#C6E1F8" stroke-width="1.5"/><path d="M213.324 299.518h32.062" stroke="#BEF3C6" stroke-width="1.5"/><path d="M226.252 196.23c0-1.714 1.387-3.103 3.102-3.103 1.714 0 3.103 1.39 3.103 3.103 0 1.713-1.39 3.103-3.103 3.103-1.715 0-3.102-1.39-3.102-3.103M210.22 212.26c0-1.713 1.388-3.102 3.103-3.102 1.714 0 3.103 1.39 3.103 3.103 0 1.714-1.39 3.104-3.103 3.104-1.715 0-3.103-1.39-3.103-3.103M259.08 244.323c0-1.714 1.39-3.103 3.102-3.103 1.714 0 3.103 1.39 3.103 3.103 0 1.714-1.39 3.103-3.103 3.103-1.713 0-3.103-1.39-3.103-3.103M226.264 332.494c0-1.714 1.387-3.103 3.103-3.103 1.713 0 3.102 1.39 3.102 3.104 0 1.714-1.39 3.103-3.103 3.103-1.716 0-3.103-1.39-3.103-3.103M218.088 388.75c0-1.713 1.388-3.104 3.103-3.104 1.715 0 3.104 1.39 3.104 3.105 0 1.714-1.39 3.104-3.103 3.104-1.714 0-3.102-1.39-3.102-3.103M242.283 348.525c0-1.713 1.387-3.103 3.103-3.103 1.713 0 3.102 1.39 3.102 3.103 0 1.714-1.39 3.103-3.102 3.103-1.716 0-3.103-1.39-3.103-3.103" fill="#C6E1F8"/><path d="M194.19 372.572c0-1.714 1.387-3.103 3.102-3.103 1.714 0 3.103 1.388 3.103 3.102 0 1.713-1.39 3.103-3.103 3.103-1.715 0-3.103-1.39-3.103-3.103" fill="#9ED9FF"/><path d="M242.283 300.432c0-1.714 1.387-3.103 3.103-3.103 1.713 0 3.102 1.388 3.102 3.102 0 1.713-1.39 3.103-3.102 3.103-1.716 0-3.103-1.39-3.103-3.103" fill="#BEF3C6"/><path d="M269.433 238.612c-1.274 0-2.305-1.033-2.305-2.305 0-1.27 1.03-2.305 2.305-2.305 1.27 0 2.303 1.034 2.303 2.305 0 1.272-1.032 2.305-2.303 2.305" fill="#FFF"/><path d="M269.433 238.612c-1.274 0-2.305-1.033-2.305-2.305 0-1.27 1.03-2.305 2.305-2.305 1.27 0 2.303 1.034 2.303 2.305 0 1.272-1.032 2.305-2.303 2.305z" stroke="#C6E1F8" stroke-width="1.5"/><path d="M253.4 254.643c-1.272 0-2.303-1.033-2.303-2.305 0-1.27 1.03-2.305 2.304-2.305 1.273 0 2.305 1.034 2.305 2.305 0 1.272-1.032 2.305-2.304 2.305" fill="#FFF"/><path d="M253.4 254.643c-1.272 0-2.303-1.033-2.303-2.305 0-1.27 1.03-2.305 2.304-2.305 1.273 0 2.305 1.034 2.305 2.305 0 1.272-1.032 2.305-2.304 2.305z" stroke="#C6E1F8" stroke-width="1.5"/><path d="M229.355 270.674c-1.274 0-2.305-1.033-2.305-2.305 0-1.272 1.03-2.305 2.305-2.305 1.272 0 2.303 1.033 2.303 2.304 0 1.27-1.03 2.304-2.303 2.304" fill="#FFF"/><path d="M229.355 270.674c-1.274 0-2.305-1.033-2.305-2.305 0-1.272 1.03-2.305 2.305-2.305 1.272 0 2.303 1.033 2.303 2.304 0 1.27-1.03 2.304-2.303 2.304z" stroke="#C6E1F8" stroke-width="1.5"/><path d="M212.87 383.343c-1.272 0-2.303-1.03-2.303-2.303s1.03-2.305 2.304-2.305c1.273 0 2.306 1.032 2.306 2.305 0 1.272-1.033 2.303-2.305 2.303" fill="#FFF"/><path d="M212.87 383.343c-1.272 0-2.303-1.03-2.303-2.303s1.03-2.305 2.304-2.305c1.273 0 2.306 1.032 2.306 2.305 0 1.272-1.033 2.303-2.305 2.303z" stroke="#C6E1F8" stroke-width="1.5"/><path d="M253.4 358.845c-1.272 0-2.303-1.033-2.303-2.305 0-1.27 1.03-2.304 2.304-2.304 1.273 0 2.305 1.033 2.305 2.304 0 1.272-1.032 2.305-2.304 2.305" fill="#FFF"/><path d="M253.4 358.845c-1.272 0-2.303-1.033-2.303-2.305 0-1.27 1.03-2.304 2.304-2.304 1.273 0 2.305 1.033 2.305 2.304 0 1.272-1.032 2.305-2.304 2.305z" stroke="#C6E1F8" stroke-width="1.5"/><path d="M221.34 206.55c-1.274 0-2.306-1.033-2.306-2.305 0-1.272 1.032-2.305 2.305-2.305 1.27 0 2.302 1.033 2.302 2.305 0 1.272-1.03 2.305-2.303 2.305" fill="#FFF"/><path d="M221.34 206.55c-1.274 0-2.306-1.033-2.306-2.305 0-1.272 1.032-2.305 2.305-2.305 1.27 0 2.302 1.033 2.302 2.305 0 1.272-1.03 2.305-2.303 2.305z" stroke="#C6E1F8" stroke-width="1.5"/><path d="M197.293 230.597c-1.274 0-2.305-1.033-2.305-2.305 0-1.272 1.03-2.305 2.305-2.305 1.27 0 2.303 1.033 2.303 2.305 0 1.272-1.032 2.305-2.303 2.305" fill="#FFF"/><path d="M197.293 230.597c-1.274 0-2.305-1.033-2.305-2.305 0-1.272 1.03-2.305 2.305-2.305 1.27 0 2.303 1.033 2.303 2.305 0 1.272-1.032 2.305-2.303 2.305z" stroke="#9ED9FF" stroke-width="1.5"/><path d="M213.324 302.737c-1.274 0-2.305-1.034-2.305-2.305 0-1.272 1.03-2.305 2.304-2.305 1.272 0 2.303 1.033 2.303 2.305 0 1.27-1.03 2.305-2.303 2.305" fill="#FFF"/><path d="M213.324 302.737c-1.274 0-2.305-1.034-2.305-2.305 0-1.272 1.03-2.305 2.304-2.305 1.272 0 2.303 1.033 2.303 2.305 0 1.27-1.03 2.305-2.303 2.305z" stroke="#BEF3C6" stroke-width="1.5"/></g></svg>