<svg xmlns="http://www.w3.org/2000/svg" width="405" height="552" viewBox="0 0 405 552" xmlns:xlink="http://www.w3.org/1999/xlink">
                    <defs>
                        <rect id="a" width="6" height="6" x="270" y="22" rx="2"></rect>
                        <rect id="b" width="6" height="6" x="260" y="22" rx="2"></rect>
                    </defs>
                    <g fill="none" fill-rule="evenodd">
                        <path fill="#EDF0F2" fill-opacity=".1" stroke="#41D941" stroke-width="2" d="M397.969 518h2c1.104569 0 2 .8954305 2 2v12c0 1.1045695-.895431 2-2 2h-2v-16z" stroke-linejoin="round"></path>
                        <path fill="#EDF0F2" fill-opacity=".1" stroke="#41D941" stroke-width="2" d="M6.969 519h-2c-1.1045695 0-2 .8954305-2 2v12c0 1.1045695.8954305 2 2 2h2v-16z" stroke-linejoin="round"></path>
                        <path fill="#41D941" fill-opacity=".1" stroke="#41D941" stroke-width="2" d="M398 549c0 1.1045695-.895431 2-2 2H9c-1.1045695 0-2-.8954305-2-2v-50H1v-4h403v4h-6v50z" stroke-linejoin="round"></path>
                        <path fill="#FFF" d="M182.416 529h1.824v-5.34l4.068 5.34h1.572v-8.4h-1.824v5.172l-3.936-5.172h-1.704v8.4zm13.524.144c1.536 0 2.724-.6 3.588-1.332v-3.648h-3.648v1.596h1.86v1.2c-.468.336-1.068.504-1.74.504-1.488 0-2.544-1.128-2.544-2.664v-.024c0-1.428 1.068-2.616 2.412-2.616.972 0 1.548.312 2.196.852l1.164-1.404c-.876-.744-1.788-1.152-3.3-1.152-2.544 0-4.404 1.956-4.404 4.344v.024c0 2.484 1.8 4.32 4.416 4.32zm5.448-.144h1.848v-8.4h-1.848v8.4zm3.948 0h1.824v-5.34l4.068 5.34h1.572v-8.4h-1.824v5.172l-3.936-5.172h-1.704v8.4zm8.844 0h2.1l1.896-2.88 1.884 2.88h2.16l-2.928-4.296 2.808-4.104H220l-1.788 2.724-1.752-2.724h-2.16l2.808 4.128L214.18 529z"></path>
                        <path fill="#41D941" fill-rule="nonzero" d="M6.969 499h391v2h-391z"></path>
                        <path fill="#000" fill-rule="nonzero" d="M7.969 501h389v2h-389" opacity=".2"></path>
                        <path fill="#000" fill-rule="nonzero" d="M6.969 549h391v2h-391z" opacity=".2"></path>
                        <g>
                        <path fill="#17A956" fill-opacity=".3" stroke="#17A956" stroke-width="2" d="M366.6614173 373.469c2.9484178 0 5.3385827 1.790861 5.3385827 4v42c0 2.209139-2.390165 4-5.3385827 4H38.338583c-2.948418 0-5.338583-1.790861-5.338583-4v-42c0-2.209139 2.390165-4 5.338583-4h328.3228343z" stroke-linejoin="round"></path>
                        <path fill="#17A956" fill-opacity=".3" fill-rule="nonzero" stroke="#17A956" stroke-width="2" d="M267.5 385.469v25h-132v-25z" stroke-linejoin="round"></path>
                        <path fill="#FFF" d="M171.484 402.976c-2.592 0-4.452-1.932-4.452-4.32v-.024c0-2.388 1.884-4.344 4.476-4.344s4.452 1.932 4.452 4.32v.024c0 2.388-1.884 4.344-4.476 4.344zm.024-1.704c1.488 0 2.52-1.176 2.52-2.616v-.024c0-1.44-1.056-2.64-2.544-2.64s-2.52 1.176-2.52 2.616v.024c0 1.44 1.056 2.64 2.544 2.64zm6.096 1.56v-8.4h3.432c2.004 0 3.216 1.188 3.216 2.904v.024c0 1.944-1.512 2.952-3.396 2.952h-1.404v2.52h-1.848zm1.848-4.164h1.464c.924 0 1.464-.552 1.464-1.272v-.024c0-.828-.576-1.272-1.5-1.272h-1.428v2.568zm6.168 4.164h6.396v-1.644h-4.56v-1.764h3.96v-1.644h-3.96v-1.704h4.5v-1.644h-6.336v8.4zm8.04 0h1.824v-5.34l4.068 5.34h1.572v-8.4H199.3v5.172l-3.936-5.172h-1.704v8.4zm9.48 0v-8.4h3.84c1.068 0 1.896.3 2.448.852.468.468.72 1.128.72 1.92v.024c0 1.356-.732 2.208-1.8 2.604l2.052 3h-2.16l-1.8-2.688h-1.452v2.688h-1.848zm1.848-4.32h1.872c.9 0 1.416-.48 1.416-1.188v-.024c0-.792-.552-1.2-1.452-1.2h-1.836v2.412zm6.828 4.32h6.396v-1.644h-4.56v-1.764h3.96v-1.644h-3.96v-1.704h4.5v-1.644h-6.336v8.4zm11.028.12c1.812 0 3.084-.936 3.084-2.604v-.024c0-1.464-.96-2.076-2.664-2.52-1.452-.372-1.812-.552-1.812-1.104v-.024c0-.408.372-.732 1.08-.732.708 0 1.44.312 2.184.828l.96-1.392c-.852-.684-1.896-1.068-3.12-1.068-1.716 0-2.94 1.008-2.94 2.532v.024c0 1.668 1.092 2.136 2.784 2.568 1.404.36 1.692.6 1.692 1.068v.024c0 .492-.456.792-1.212.792-.96 0-1.752-.396-2.508-1.02l-1.092 1.308c1.008.9 2.292 1.344 3.564 1.344zm6.468-.12h1.848v-6.696h2.556v-1.704h-6.96v1.704h2.556v6.696zm8.184 0h1.848v-3.348l3.228-5.052h-2.1l-2.04 3.372-2.004-3.372h-2.16l3.228 5.088v3.312z"></path>
                        <path fill="#17A956" fill-opacity=".3" d="M370.5 391.469v14h-101v-14h101zm-237 0v14h-100v-14h100z" opacity=".24"></path>
                        <path fill="#17A956" fill-opacity=".4" d="M370.5 389.469v2h-103v-2h103zm-101 0v18h-2v-18h2zm101 16v2h-103v-2h103zm-235-16v2h-100v-2h100zm0 0v18h-2v-18h2zm0 16v2h-100v-2h100z"></path>
                        <path fill="#32AAFF" fill-opacity=".3" stroke="#32AAFF" stroke-width="2" d="M350.080217 250c1.439529-.0165244 2.824234.4076512 3.82595 1.172 1.033937.7404997 1.607771 1.7639768 1.585577 2.828v43c0 2.209139-2.422823 4-5.411527 4H57.8577826c-2.9887037 0-5.4115266-1.790861-5.4115266-4v-43c-.0221935-1.0640232.5516403-2.0875003 1.5855773-2.828 1.0017156-.7643488 2.3864208-1.1885244 3.8259492-1.172H350.080217z" stroke-linejoin="round"></path>
                        <g transform="translate(52 250)">
                            <use fill="#68FAA7" xlink:href="#a"></use>
                            <rect class="cluster-lights light-1" width="4" height="4" x="271" y="23" stroke="#17A956" stroke-width="2" rx="2"></rect>
                        </g>
                        <g transform="translate(52 250)">
                            <use fill="#68FAA7" xlink:href="#b"></use>
                            <rect class="cluster-lights light-2" width="4" height="4" x="261" y="23" stroke="#17A956" stroke-width="2" rx="2"></rect>
                        </g>
                        <path fill="#2F7EBA" fill-rule="nonzero" d="M54 272h2v2h-2v-2zm0 4h2v2h-2v-2zm2-2h2v2h-2v-2zm2-2h2v2h-2v-2zm0 4h2v2h-2v-2zm2-2h2v2h-2v-2zm2-2h2v2h-2v-2zm0 4h2v2h-2v-2zm2-2h2v2h-2v-2zm2-2h2v2h-2v-2zm0 4h2v2h-2v-2zm2-2h2v2h-2v-2zm2-2h2v2h-2v-2zm0 4h2v2h-2v-2zm2-2h2v2h-2v-2zm2-2h2v2h-2v-2zm0 4h2v2h-2v-2zm258-4h2v2h-2v-2zm0 4h2v2h-2v-2zm2-2h2v2h-2v-2zm2-2h2v2h-2v-2zm0 4h2v2h-2v-2zm2-2h2v2h-2v-2zm2-2h2v2h-2v-2zm0 4h2v2h-2v-2zm2-2h2v2h-2v-2zm2-2h2v2h-2v-2zm0 4h2v2h-2v-2zm2-2h2v2h-2v-2zm2-2h2v2h-2v-2zm0 4h2v2h-2v-2zm2-2h2v2h-2v-2zm2-2h2v2h-2v-2zm0 4h2v2h-2v-2zm-274-4h2v2h-2v-2zm0 4h2v2h-2v-2zm2-2h2v2h-2v-2zm-4 0h2v2h-2v-2zm6-2h2v2h-2v-2zm0 4h2v2h-2v-2zm2-2h2v2h-2v-2zm2-2h2v2h-2v-2zm0 4h2v2h-2v-2zm2-2h2v2h-2v-2zm2-2h2v2h-2v-2zm0 4h2v2h-2v-2zm2-2h2v2h-2v-2zm2-2h2v2h-2v-2zm0 4h2v2h-2v-2zm2-2h2v2h-2v-2zm2-2h2v2h-2v-2zm0 4h2v2h-2v-2z" opacity=".5"></path>
                        <path fill="#000" fill-opacity=".1" fill-rule="nonzero" stroke="#32AAFF" stroke-width="2" d="M103.19575 264h202.5465v22h-202.5465z" stroke-linejoin="round"></path>
                        <path fill="#FFF" d="M123.438 279.811c1.62 0 2.58-.576 3.444-1.5l-1.176-1.188c-.66.6-1.248.984-2.208.984-1.44 0-2.436-1.2-2.436-2.64v-.024c0-1.44 1.02-2.616 2.436-2.616.84 0 1.5.36 2.148.948l1.176-1.356c-.78-.768-1.728-1.296-3.312-1.296-2.58 0-4.38 1.956-4.38 4.344v.024c0 2.412 1.836 4.32 4.308 4.32zm4.92-.144h6.036v-1.68h-4.188v-6.72h-1.848v8.4zm10.692.132c2.256 0 3.684-1.248 3.684-3.792v-4.74h-1.848v4.812c0 1.332-.684 2.016-1.812 2.016-1.128 0-1.812-.708-1.812-2.076v-4.752h-1.848v4.8c0 2.472 1.38 3.732 3.636 3.732zm8.556-.012c1.812 0 3.084-.936 3.084-2.604v-.024c0-1.464-.96-2.076-2.664-2.52-1.452-.372-1.812-.552-1.812-1.104v-.024c0-.408.372-.732 1.08-.732.708 0 1.44.312 2.184.828l.96-1.392c-.852-.684-1.896-1.068-3.12-1.068-1.716 0-2.94 1.008-2.94 2.532v.024c0 1.668 1.092 2.136 2.784 2.568 1.404.36 1.692.6 1.692 1.068v.024c0 .492-.456.792-1.212.792-.96 0-1.752-.396-2.508-1.02l-1.092 1.308c1.008.9 2.292 1.344 3.564 1.344zm6.468-.12h1.848v-6.696h2.556v-1.704h-6.96v1.704h2.556v6.696zm5.82 0h6.396v-1.644h-4.56v-1.764h3.96v-1.644h-3.96v-1.704h4.5v-1.644h-6.336v8.4zm8.04 0v-8.4h3.84c1.068 0 1.896.3 2.448.852.468.468.72 1.128.72 1.92v.024c0 1.356-.732 2.208-1.8 2.604l2.052 3h-2.16l-1.8-2.688h-1.452v2.688h-1.848zm1.848-4.32h1.872c.9 0 1.416-.48 1.416-1.188v-.024c0-.792-.552-1.2-1.452-1.2h-1.836v2.412zm6.912 4.32h1.848v-8.4h-1.848v8.4zm3.948 0h1.824v-5.34l4.068 5.34h1.572v-8.4h-1.824v5.172l-3.936-5.172h-1.704v8.4zm13.524.144c1.536 0 2.724-.6 3.588-1.332v-3.648h-3.648v1.596h1.86v1.2c-.468.336-1.068.504-1.74.504-1.488 0-2.544-1.128-2.544-2.664v-.024c0-1.428 1.068-2.616 2.412-2.616.972 0 1.548.312 2.196.852l1.164-1.404c-.876-.744-1.788-1.152-3.3-1.152-2.544 0-4.404 1.956-4.404 4.344v.024c0 2.484 1.8 4.32 4.416 4.32zm14.616.024l-.972-.984c-.684.564-1.488.936-2.46.936-1.608 0-2.82-.936-2.82-2.424v-.024c0-1.068.576-1.824 1.632-2.304-.408-.576-.588-1.104-.588-1.68v-.024c0-1.152.924-2.208 2.544-2.208 1.428 0 2.364.936 2.364 2.112v.024c0 1.128-.72 1.788-1.764 2.196l1.116 1.116c.276-.432.552-.924.816-1.44l1.356.744c-.324.588-.684 1.212-1.104 1.776l1.236 1.236-1.356.948zm-3.024-5.352c.732-.276 1.116-.588 1.116-1.116v-.024c0-.48-.324-.78-.792-.78-.492 0-.816.348-.816.852v.024c0 .372.144.648.492 1.044zm-.192 3.792c.42 0 .828-.18 1.212-.48l-1.608-1.632c-.552.288-.78.696-.78 1.104v.024c0 .588.492.984 1.176.984zm9.516 1.392v-8.4h3.276c2.64 0 4.464 1.812 4.464 4.176v.024c0 2.364-1.824 4.2-4.464 4.2h-3.276zm1.848-1.668h1.428c1.512 0 2.532-1.02 2.532-2.508v-.024c0-1.488-1.02-2.532-2.532-2.532h-1.428v5.064zm6.216 1.668l3.6-8.46h1.704l3.6 8.46h-1.932l-.768-1.884h-3.552l-.768 1.884h-1.884zm3.312-3.516h2.232l-1.116-2.724-1.116 2.724zm7.764 3.516v-6.696h-2.556v-1.704h6.96v1.704h-2.556v6.696h-1.848zm4.02 0l3.6-8.46h1.704l3.6 8.46h-1.932l-.768-1.884h-3.552l-.768 1.884h-1.884zm3.312-3.516h2.232l-1.116-2.724-1.116 2.724zm9.756 3.636c1.812 0 3.084-.936 3.084-2.604v-.024c0-1.464-.96-2.076-2.664-2.52-1.452-.372-1.812-.552-1.812-1.104v-.024c0-.408.372-.732 1.08-.732.708 0 1.44.312 2.184.828l.96-1.392c-.852-.684-1.896-1.068-3.12-1.068-1.716 0-2.94 1.008-2.94 2.532v.024c0 1.668 1.092 2.136 2.784 2.568 1.404.36 1.692.6 1.692 1.068v.024c0 .492-.456.792-1.212.792-.96 0-1.752-.396-2.508-1.02l-1.092 1.308c1.008.9 2.292 1.344 3.564 1.344zm6.468-.12h1.848v-6.696h2.556v-1.704h-6.96v1.704h2.556v6.696zm9.54.144c-2.592 0-4.452-1.932-4.452-4.32v-.024c0-2.388 1.884-4.344 4.476-4.344s4.452 1.932 4.452 4.32v.024c0 2.388-1.884 4.344-4.476 4.344zm.024-1.704c1.488 0 2.52-1.176 2.52-2.616v-.024c0-1.44-1.056-2.64-2.544-2.64s-2.52 1.176-2.52 2.616v.024c0 1.44 1.056 2.64 2.544 2.64zm6.096 1.56v-8.4h3.84c1.068 0 1.896.3 2.448.852.468.468.72 1.128.72 1.92v.024c0 1.356-.732 2.208-1.8 2.604l2.052 3h-2.16l-1.8-2.688h-1.452v2.688h-1.848zm1.848-4.32h1.872c.9 0 1.416-.48 1.416-1.188v-.024c0-.792-.552-1.2-1.452-1.2h-1.836v2.412zm6.828 4.32h6.396v-1.644h-4.56v-1.764h3.96v-1.644h-3.96v-1.704h4.5v-1.644h-6.336v8.4z"></path>
                        <g fill="#17A956">
                            <path fill-opacity=".2" stroke="#17A956" stroke-width="2" d="M123.969 131.1260175c1.7252272.4440428 3 2.010143 3 3.8739825v40c0 2.209139-1.790861 4-4 4h-50c-2.209139 0-4-1.790861-4-4v-40c0-1.8638394 1.2747728-3.4299397 3-3.8739825V126c0-2.209139 1.790861-4 4-4h8c2.209139 0 4 1.790861 4 4v5h20v-5c0-2.209139 1.790861-4 4-4h8c2.209139 0 4 1.790861 4 4v5.1260175z" stroke-linejoin="round"></path>
                            <path d="M72 130h52v2H72z"></path>
                            <path d="M104.969 171h-14v6h-2v-8h18v8h-2v-6zm2-31v1h-18v-10h2v8h14v-8h2v9z"></path>
                            <path d="M90.969 131h14v8h-14v-8zm0 40h14v8h-14v-8z" opacity=".1282929"></path>
                        </g>
                        <g fill="#32AAFF">
                            <path fill-opacity=".3" stroke="#32AAFF" stroke-width="2" d="M336.969 131.1260175c1.7252272.4440428 3 2.010143 3 3.8739825v40c0 2.209139-1.790861 4-4 4h-51c-2.209139 0-4-1.790861-4-4v-40c0-1.8638394 1.2747728-3.4299397 3-3.8739825V126c0-2.209139 1.790861-4 4-4h8c2.209139 0 4 1.790861 4 4v5h21v-5c0-2.209139 1.790861-4 4-4h8c2.209139 0 4 1.790861 4 4v5.1260175z" stroke-linejoin="round"></path>
                            <path d="M284 130h53v2h-53z"></path>
                            <path d="M316.969 171h-14v6h-2v-8h18v8h-2v-6zm2-31v1h-18v-10h2v8h14v-8h2v9z" opacity=".5"></path>
                            <path d="M302.969 131h14v8h-14v-8zm0 40h14v8h-14v-8z" opacity=".24"></path>
                        </g>
                        <g>
                            <path fill="#32AAFF" fill-opacity=".3" stroke="#32AAFF" stroke-width="2" d="M326.969 1c2.209139 0 4 1.790861 4 4v40c0 2.209139-1.790861 4-4 4h-242c-2.209139 0-4-1.790861-4-4V5c0-2.209139 1.790861-4 4-4h242z" stroke-linejoin="round"></path>
                            <path fill="#32AAFF" d="M212.969 42h-14v6h-2v-8h18v8h-2v-6zm2-32v1h-18V1h2v8h14V1h2v9z" opacity=".5"></path>
                            <path fill="#32AAFF" d="M198.969 1h14v8h-14V1zm0 40h14v8h-14v-8z" opacity=".24"></path>
                            <path fill="#000" fill-opacity=".1" fill-rule="nonzero" stroke="#32AAFF" stroke-width="2" d="M96 14h216.80425v22H96z" stroke-linejoin="round"></path>
                            <path fill="#FFF" d="M105.883125 29.667v-8.4h3.84c1.068 0 1.896.3 2.448.852.468.468.72 1.128.72 1.92v.024c0 1.356-.732 2.208-1.8 2.604l2.052 3h-2.16l-1.8-2.688h-1.452v2.688h-1.848zm1.848-4.32h1.872c.9 0 1.416-.48 1.416-1.188v-.024c0-.792-.552-1.2-1.452-1.2h-1.836v2.412zm6.828 4.32h6.396v-1.644h-4.56v-1.764h3.96v-1.644h-3.96v-1.704h4.5v-1.644h-6.336v8.4zm11.028.12c1.812 0 3.084-.936 3.084-2.604v-.024c0-1.464-.96-2.076-2.664-2.52-1.452-.372-1.812-.552-1.812-1.104v-.024c0-.408.372-.732 1.08-.732.708 0 1.44.312 2.184.828l.96-1.392c-.852-.684-1.896-1.068-3.12-1.068-1.716 0-2.94 1.008-2.94 2.532v.024c0 1.668 1.092 2.136 2.784 2.568 1.404.36 1.692.6 1.692 1.068v.024c0 .492-.456.792-1.212.792-.96 0-1.752-.396-2.508-1.02l-1.092 1.308c1.008.9 2.292 1.344 3.564 1.344zm6.468-.12h1.848v-6.696h2.556v-1.704h-6.96v1.704h2.556v6.696zm5.82 0h1.848v-3.252h4.008v-1.68h-4.008v-1.788h4.548v-1.68h-6.396v8.4zm11.376.132c2.256 0 3.684-1.248 3.684-3.792v-4.74h-1.848v4.812c0 1.332-.684 2.016-1.812 2.016-1.128 0-1.812-.708-1.812-2.076v-4.752h-1.848v4.8c0 2.472 1.38 3.732 3.636 3.732zm5.568-.132h6.036v-1.68h-4.188v-6.72h-1.848v8.4zm10.308 0l3.6-8.46h1.704l3.6 8.46h-1.932l-.768-1.884h-3.552l-.768 1.884h-1.884zm3.312-3.516h2.232l-1.116-2.724-1.116 2.724zm6.888 3.516v-8.4h3.276c2.64 0 4.464 1.812 4.464 4.176v.024c0 2.364-1.824 4.2-4.464 4.2h-3.276zm1.848-1.668h1.428c1.512 0 2.532-1.02 2.532-2.508v-.024c0-1.488-1.02-2.532-2.532-2.532h-1.428v5.064zm7.536 1.668h1.812v-5.448l2.34 3.552h.048l2.364-3.588v5.484h1.836v-8.4h-1.992l-2.208 3.552-2.208-3.552h-1.992v8.4zm10.5 0h1.848v-8.4h-1.848v8.4zm3.948 0h1.824v-5.34l4.068 5.34h1.572v-8.4h-1.824v5.172l-3.936-5.172h-1.704v8.4zm9.564 0h1.848v-8.4h-1.848v8.4zm6.936.12c1.812 0 3.084-.936 3.084-2.604v-.024c0-1.464-.96-2.076-2.664-2.52-1.452-.372-1.812-.552-1.812-1.104v-.024c0-.408.372-.732 1.08-.732.708 0 1.44.312 2.184.828l.96-1.392c-.852-.684-1.896-1.068-3.12-1.068-1.716 0-2.94 1.008-2.94 2.532v.024c0 1.668 1.092 2.136 2.784 2.568 1.404.36 1.692.6 1.692 1.068v.024c0 .492-.456.792-1.212.792-.96 0-1.752-.396-2.508-1.02l-1.092 1.308c1.008.9 2.292 1.344 3.564 1.344zm6.468-.12h1.848v-6.696h2.556v-1.704h-6.96v1.704h2.556v6.696zm5.82 0v-8.4h3.84c1.068 0 1.896.3 2.448.852.468.468.72 1.128.72 1.92v.024c0 1.356-.732 2.208-1.8 2.604l2.052 3h-2.16l-1.8-2.688h-1.452v2.688h-1.848zm1.848-4.32h1.872c.9 0 1.416-.48 1.416-1.188v-.024c0-.792-.552-1.2-1.452-1.2h-1.836v2.412zm6.108 4.32l3.6-8.46h1.704l3.6 8.46h-1.932l-.768-1.884h-3.552l-.768 1.884h-1.884zm3.312-3.516h2.232l-1.116-2.724-1.116 2.724zm7.764 3.516v-6.696h-2.556v-1.704h6.96v1.704h-2.556v6.696h-1.848zm5.904 0h1.848v-8.4h-1.848v8.4zm8.028.144c-2.592 0-4.452-1.932-4.452-4.32v-.024c0-2.388 1.884-4.344 4.476-4.344s4.452 1.932 4.452 4.32v.024c0 2.388-1.884 4.344-4.476 4.344zm.024-1.704c1.488 0 2.52-1.176 2.52-2.616v-.024c0-1.44-1.056-2.64-2.544-2.64s-2.52 1.176-2.52 2.616v.024c0 1.44 1.056 2.64 2.544 2.64zm6.096 1.56h1.824v-5.34l4.068 5.34h1.572v-8.4h-1.824v5.172l-3.936-5.172h-1.704v8.4zm12.36 0l3.6-8.46h1.704l3.6 8.46h-1.932l-.768-1.884h-3.552l-.768 1.884h-1.884zm3.312-3.516h2.232l-1.116-2.724-1.116 2.724zm6.888 3.516v-8.4h3.432c2.004 0 3.216 1.188 3.216 2.904v.024c0 1.944-1.512 2.952-3.396 2.952h-1.404v2.52h-1.848zm1.848-4.164h1.464c.924 0 1.464-.552 1.464-1.272v-.024c0-.828-.576-1.272-1.5-1.272h-1.428v2.568zm6.252 4.164h1.848v-8.4h-1.848v8.4z"></path>
                        </g>
                        <g>
                            <path fill="#7B76E6" fill-opacity=".3" stroke="#7B76E6" stroke-width="2" d="M245.969 131h-9v-5c0-2.209139-1.790861-4-4-4h-8c-2.209139 0-4 1.790861-4 4v5h-9v-5c0-2.209139-1.790861-4-4-4h-8c-2.209139 0-4 1.790861-4 4v5h-9v-5c0-2.209139-1.790861-4-4-4h-8c-2.209139 0-4 1.790861-4 4v5h-9v-5c0-2.209139-1.790861-4-4-4h-8c-2.209139 0-4 1.790861-4 4v5h-3c-2.209139 0-4 1.790861-4 4v40c0 2.209139 1.790861 4 4 4h122c2.209139 0 4-1.790861 4-4v-40c0-2.209139-1.790861-4-4-4h-3v-5c0-2.209139-1.790861-4-4-4h-8c-2.209139 0-4 1.790861-4 4v5z" stroke-linejoin="round"></path>
                            <path fill="#000" fill-opacity=".1" fill-rule="nonzero" stroke="#7B76E6" stroke-width="2" d="M152.066875 144h104.80425v22h-104.80425z" stroke-linejoin="round"></path>
                            <path fill="#FFF" d="M177.39 158.667v-8.4h3.432c2.004 0 3.216 1.188 3.216 2.904v.024c0 1.944-1.512 2.952-3.396 2.952h-1.404v2.52h-1.848zm1.848-4.164h1.464c.924 0 1.464-.552 1.464-1.272v-.024c0-.828-.576-1.272-1.5-1.272h-1.428v2.568zm6.168 4.164h6.036v-1.68h-4.188v-6.72h-1.848v8.4zm10.692.132c2.256 0 3.684-1.248 3.684-3.792v-4.74h-1.848v4.812c0 1.332-.684 2.016-1.812 2.016-1.128 0-1.812-.708-1.812-2.076v-4.752h-1.848v4.8c0 2.472 1.38 3.732 3.636 3.732zm9.612.012c1.536 0 2.724-.6 3.588-1.332v-3.648h-3.648v1.596h1.86v1.2c-.468.336-1.068.504-1.74.504-1.488 0-2.544-1.128-2.544-2.664v-.024c0-1.428 1.068-2.616 2.412-2.616.972 0 1.548.312 2.196.852l1.164-1.404c-.876-.744-1.788-1.152-3.3-1.152-2.544 0-4.404 1.956-4.404 4.344v.024c0 2.484 1.8 4.32 4.416 4.32zm5.448-.144h1.848v-8.4h-1.848v8.4zm3.948 0h1.824v-5.34l4.068 5.34h1.572v-8.4h-1.824v5.172l-3.936-5.172h-1.704v8.4zm12.468.12c1.812 0 3.084-.936 3.084-2.604v-.024c0-1.464-.96-2.076-2.664-2.52-1.452-.372-1.812-.552-1.812-1.104v-.024c0-.408.372-.732 1.08-.732.708 0 1.44.312 2.184.828l.96-1.392c-.852-.684-1.896-1.068-3.12-1.068-1.716 0-2.94 1.008-2.94 2.532v.024c0 1.668 1.092 2.136 2.784 2.568 1.404.36 1.692.6 1.692 1.068v.024c0 .492-.456.792-1.212.792-.96 0-1.752-.396-2.508-1.02l-1.092 1.308c1.008.9 2.292 1.344 3.564 1.344z"></path>
                            <path fill="#7B76E6" d="M141 130h126v2H141z"></path>
                            <path fill="#7B76E6" d="M210.969 171h-14v6h-2v-8h18v8h-2v-6zm2-31v1h-18v-10h2v8h14v-8h2v9z" opacity=".5"></path>
                            <path fill="#7B76E6" d="M196.969 131h14v8h-14v-8zm0 40h14v8h-14v-8z" opacity=".24"></path>
                        </g>
                        <g>
                            <path stroke="#66859F" stroke-width="2" d="M205 61v46"></path>
                            <path fill="#66859F" d="M205.0006124 59C203.3435394 59 202 60.3427345 202 61.999387 202 63.656039 203.3435395 65 205.0006124 65 206.6552358 65 208 63.6560392 208 61.999387 208 60.3427344 206.6552358 59 205.0006124 59z"></path>
                            <path fill="#66859F" d="M206.5006125 109.000613c0-.827713-.6725194-1.5009196-1.5006125-1.5009196-.828093 0-1.5006125.6732067-1.5006125 1.5009197 0 .8277132.6725194 1.4996936 1.5006125 1.4996936.828093 0 1.5006125-.6719804 1.5006125-1.4996935zm-4.5006125 0C202 107.343961 203.3425888 106 205 106c1.6561862 0 3 1.3439608 3 3.000613C208 110.6560393 206.6561862 112 205 112c-1.6574112 0-3-1.3439608-3-2.999387z"></path>
                        </g>
                        <g>
                            <path stroke="#66859F" stroke-width="2" d="M205 191v46"></path>
                            <path fill="#66859F" d="M205.0006124 189C203.3435394 189 202 190.3427345 202 191.999387 202 193.656039 203.3435395 195 205.0006124 195 206.6552358 195 208 193.6560392 208 191.999387 208 190.3427344 206.6552358 189 205.0006124 189z"></path>
                            <path fill="#66859F" d="M206.5006125 239.000613c0-.827713-.6725194-1.5009196-1.5006125-1.5009196-.828093 0-1.5006125.6732067-1.5006125 1.5009197 0 .8277132.6725194 1.4996936 1.5006125 1.4996936.828093 0 1.5006125-.6719804 1.5006125-1.4996935zm-4.5006125 0C202 237.343961 203.3425888 236 205 236c1.6561862 0 3 1.3439608 3 3.000613C208 240.6560393 206.6561862 242 205 242c-1.6574112 0-3-1.3439608-3-2.999387z"></path>
                        </g>
                        <g>
                            <path stroke="#66859F" stroke-width="2" d="M205 314v46"></path>
                            <path fill="#66859F" d="M205.0006124 312C203.3435394 312 202 313.3427345 202 314.999387 202 316.656039 203.3435395 318 205.0006124 318 206.6552358 318 208 316.6560392 208 314.999387 208 313.3427344 206.6552358 312 205.0006124 312z"></path>
                            <path fill="#66859F" d="M206.5006125 362.000613c0-.827713-.6725194-1.5009196-1.5006125-1.5009196-.828093 0-1.5006125.6732067-1.5006125 1.5009197 0 .8277132.6725194 1.4996936 1.5006125 1.4996936.828093 0 1.5006125-.6719804 1.5006125-1.4996935zm-4.5006125 0C202 360.343961 203.3425888 359 205 359c1.6561862 0 3 1.3439608 3 3.000613C208 363.6560393 206.6561862 365 205 365c-1.6574112 0-3-1.3439608-3-2.999387z"></path>
                        </g>
                        <g>
                            <path stroke="#66859F" stroke-width="2" d="M205 436v46"></path>
                            <path fill="#66859F" d="M205.0006124 434C203.3435394 434 202 435.3427345 202 436.999387 202 438.656039 203.3435395 440 205.0006124 440 206.6552358 440 208 438.6560392 208 436.999387 208 435.3427344 206.6552358 434 205.0006124 434z"></path>
                            <path fill="#66859F" d="M206.5006125 484.000613c0-.827713-.6725194-1.5009196-1.5006125-1.5009196-.828093 0-1.5006125.6732067-1.5006125 1.5009197 0 .8277132.6725194 1.4996936 1.5006125 1.4996936.828093 0 1.5006125-.6719804 1.5006125-1.4996935zm-4.5006125 0C202 482.343961 203.3425888 481 205 481c1.6561862 0 3 1.3439608 3 3.000613C208 485.6560393 206.6561862 487 205 487c-1.6574112 0-3-1.3439608-3-2.999387z"></path>
                        </g>
                        </g>
                    </g>
                </svg>